<svg version="1.1" id="Layer_1" xmlns="http://www.w3.org/2000/svg" xmlns:xlink="http://www.w3.org/1999/xlink" x="0px" y="0px"
	 width="100%" viewBox="0 0 878 893" enable-background="new 0 0 878 893" xml:space="preserve">
<path fill="#FEFFFF" opacity="1.000000" stroke="none" 
	d="
M1.000000,536.000000 
	C1.000000,357.755157 1.000000,179.510330 1.000000,1.000000 
	C112.689171,1.000000 224.378555,1.000000 336.528870,1.198276 
	C336.972229,1.660413 336.959442,1.924508 336.513245,2.345751 
	C326.776855,2.558952 317.474854,2.474729 308.182037,2.727533 
	C303.116547,2.865336 298.066650,3.574683 292.602753,4.024446 
	C291.129272,4.151177 290.062714,4.279727 288.618866,4.386086 
	C279.144348,6.675183 270.326508,9.479686 264.675964,17.746254 
	C264.746765,17.741198 264.644409,17.642878 264.361877,17.807682 
	C255.667801,27.503508 247.256256,37.034531 238.844711,46.565556 
	C239.035034,46.888382 239.225357,47.211208 239.415695,47.534035 
	C242.582718,46.954838 245.749741,46.375641 249.337097,45.831924 
	C250.839462,45.642384 251.921524,45.417362 253.404343,45.296661 
	C256.440460,45.082813 259.068542,44.580807 261.712341,44.475800 
	C281.467529,43.691135 301.225800,42.984985 321.353516,42.470055 
	C323.149445,42.700535 324.575043,42.715187 326.404541,42.843632 
	C362.064301,45.766068 395.709106,53.881508 426.073822,73.161293 
	C426.154480,73.255150 426.392883,73.188690 426.563202,73.495468 
	C428.801636,75.245819 430.869751,76.689400 433.078064,78.447479 
	C433.430725,78.848969 433.643158,78.935944 433.883972,79.183228 
	C433.912384,79.343544 434.363312,79.542892 434.363312,79.542892 
	C434.363312,79.542892 434.833771,79.479378 434.917847,79.671768 
	C435.001923,79.864159 435.409241,79.966148 435.498047,80.267166 
	C440.017883,84.825272 444.448883,89.082367 448.950623,93.665207 
	C452.334686,98.454384 455.648102,102.917809 459.295959,107.831787 
	C496.816254,72.039642 537.112305,41.252663 586.591553,23.532122 
	C579.000000,14.577166 570.227417,8.994740 559.924011,5.742078 
	C554.643250,4.075012 549.309692,2.575324 544.000000,0.999996 
	C655.618958,1.000000 767.237915,1.000000 879.000000,1.000000 
	C879.000000,226.355942 879.000000,451.711914 878.662354,677.339417 
	C875.877930,664.255066 871.599976,651.678467 862.690430,640.724304 
	C854.278076,630.156067 844.339355,621.988098 831.716980,616.696106 
	C830.933960,616.335510 830.455444,616.198547 829.726074,615.816650 
	C804.240479,606.488708 780.375000,608.927185 757.687012,624.162781 
	C751.468689,630.080017 745.582153,635.898987 739.723022,641.856567 
	C739.750366,641.995239 739.722778,641.715027 739.466614,641.919800 
	C735.761292,648.524536 731.559082,654.637451 728.991272,661.373413 
	C716.821411,693.297913 728.436462,730.785522 756.556213,750.724426 
	C776.756653,765.047974 798.943848,768.783264 823.241333,761.997559 
	C825.161682,761.445068 826.665833,760.849487 828.278198,760.284668 
	C828.386414,760.315430 828.574280,759.951965 828.750610,759.904968 
	C828.927002,759.857971 829.006592,759.501648 829.367676,759.448975 
	C832.250549,758.313965 834.772278,757.231628 837.518616,756.114197 
	C837.743225,756.079102 837.998535,755.702759 838.305725,755.679688 
	C839.432129,755.106079 840.251343,754.555603 841.223877,753.944336 
	C841.377136,753.883484 841.470703,753.567261 841.451416,753.455078 
	C841.432068,753.342896 841.542908,753.541748 841.827393,753.514893 
	C842.405884,753.250610 842.699768,753.013184 843.320801,752.731567 
	C846.584045,750.315369 849.520264,747.943237 852.458191,745.519897 
	C852.459900,745.468750 852.562317,745.472290 852.862061,745.345947 
	C858.421143,738.711121 863.729309,732.241211 868.913208,725.673279 
	C870.729736,723.371765 869.944824,721.613220 867.287292,720.497131 
	C861.657471,718.132996 856.058533,715.695435 850.441772,713.300171 
	C842.102539,709.743713 842.105042,709.751404 836.800415,716.911926 
	C835.820007,718.235413 834.787842,719.520569 833.821960,720.851868 
	C833.864319,720.880371 833.872009,720.778564 833.588501,720.844727 
	C833.153687,721.250061 833.002319,721.589172 832.897278,721.925171 
	C832.943604,721.922119 832.886108,721.849182 832.593628,722.012939 
	C831.174927,723.165894 830.081787,724.195984 828.917358,725.137939 
	C816.430908,735.238708 802.383179,738.336426 787.395996,732.490540 
	C780.776550,729.908508 775.104553,724.897705 769.001221,720.994751 
	C769.000000,721.000000 769.010498,720.997620 768.930420,720.656372 
	C763.352051,713.456055 759.285339,705.934021 758.082336,697.043579 
	C758.074158,697.005188 758.059326,697.081787 758.522339,697.062134 
	C780.571167,697.034363 802.157166,697.051270 823.742981,697.010437 
	C841.503601,696.976868 859.264038,696.874878 877.353271,696.853638 
	C878.121338,696.936096 878.560669,696.968079 879.000000,697.000000 
	C879.000000,762.600281 879.000000,828.200562 879.000000,894.000000 
	C802.310852,894.000000 725.621460,894.000000 648.638550,893.608398 
	C649.824585,893.063049 651.306824,892.931885 652.783203,892.751831 
	C666.226746,891.112488 679.191223,887.926392 691.260986,880.846436 
	C691.703369,880.654602 691.843384,880.506775 692.292419,880.291748 
	C697.459656,876.194519 702.317993,872.164429 707.111023,868.081177 
	C707.045776,868.027893 707.142029,868.166138 707.458008,868.033447 
	C714.032288,862.899658 718.388306,856.558472 721.029724,849.027405 
	C720.995422,849.021057 721.044434,849.070862 721.333984,848.869507 
	C732.479614,821.438660 721.857666,794.159119 695.684387,781.214478 
	C678.413269,772.672546 660.022888,771.649536 641.264709,771.624817 
	C630.173767,771.610168 619.084351,770.414368 607.696838,769.536926 
	C606.917908,769.281067 606.436340,769.238098 605.634155,769.021545 
	C604.115051,768.281616 602.206421,767.994019 601.853760,767.095581 
	C600.866760,764.581360 600.522827,761.814636 599.925110,759.147583 
	C601.747375,759.058472 603.674072,758.542603 605.372681,758.958435 
	C610.972900,760.329468 616.490662,762.037720 622.477783,763.788086 
	C630.282837,763.644531 637.650085,763.329346 645.429810,763.087769 
	C675.881104,757.510925 695.235107,739.476318 704.860413,711.012146 
	C711.902771,690.186096 709.563721,669.773254 699.694092,650.148560 
	C697.179688,645.149048 698.523499,642.812256 704.065491,642.048706 
	C706.976257,641.647644 709.945801,641.673218 713.099487,641.494141 
	C713.099487,631.184387 713.099487,621.294189 713.099487,611.333557 
	C700.302307,610.033813 688.826843,612.329651 679.276062,620.747070 
	C676.865540,622.871582 675.524780,622.888672 672.962402,621.294312 
	C629.340942,594.151123 573.226135,617.110474 560.847046,667.079346 
	C554.847290,691.297607 559.260254,713.516235 573.664917,733.799927 
	C575.105835,735.828918 576.581665,737.267883 574.866394,740.281250 
	C565.968872,755.912109 565.752747,771.406250 576.153259,785.651855 
	C571.317749,792.161377 566.064331,797.978088 562.242371,804.618713 
	C551.656433,823.011841 552.471191,841.437012 564.024475,859.212219 
	C575.145874,876.323059 591.829224,885.070190 611.415527,889.959229 
	C613.669067,890.544983 615.569397,891.002686 617.488220,891.361389 
	C622.321045,892.264709 627.162170,893.123413 632.000000,894.000000 
	C421.786194,894.000000 211.572357,894.000000 1.000000,894.000000 
	C1.000000,850.978027 1.000000,807.955078 1.436973,764.278503 
	C10.363143,763.596069 18.852365,763.573181 27.341513,763.533508 
	C29.092468,763.525330 31.388985,764.156372 30.777023,760.490845 
	C30.831257,731.027100 30.782999,702.018127 30.821266,672.756348 
	C30.848988,672.335388 30.790188,672.167236 30.797714,671.565430 
	C30.895067,669.084778 30.926096,667.037842 30.965244,665.017151 
	C30.973368,665.043457 31.028421,665.044312 31.493940,665.008545 
	C56.511829,664.972778 81.064201,664.972778 105.533310,664.972778 
	C105.533310,654.569702 105.533310,644.864624 105.533310,634.853821 
	C103.270126,634.853821 101.453278,634.854065 99.636436,634.853760 
	C78.342255,634.850342 57.047810,634.889771 35.754368,634.761475 
	C34.061668,634.751282 32.375961,633.580017 30.779997,632.560425 
	C30.828653,631.112427 30.784319,630.052368 30.843761,628.602661 
	C30.878010,627.147095 30.808481,626.081116 30.805410,624.549805 
	C30.826357,608.391663 30.780846,592.698792 30.820683,576.755615 
	C30.848267,576.338684 30.790506,576.172119 30.797722,575.566284 
	C30.766197,572.774658 30.669699,570.422424 30.771088,567.775330 
	C31.665358,566.870605 32.361744,566.260681 33.507736,565.775330 
	C46.886803,565.915405 59.816364,565.970764 72.745689,565.936584 
	C89.147209,565.893188 105.548538,565.777039 122.263161,565.783569 
	C122.576370,556.085510 122.576370,546.296204 122.576370,536.132324 
	C120.893585,536.132324 119.081696,536.134094 117.269798,536.132019 
	C78.513199,536.088257 39.756599,536.044067 1.000000,536.000000 
M385.527802,624.548279 
	C385.024811,622.997986 384.521820,621.447693 383.674530,619.563599 
	C383.674530,619.563599 383.195221,619.548889 382.894958,619.132751 
	C380.928986,618.454712 378.962982,617.776733 376.585510,616.952026 
	C376.585510,616.952026 376.148621,616.947632 375.837311,616.323547 
	C372.089203,615.456543 368.313293,614.693787 364.597809,613.704285 
	C349.044312,609.562256 334.826843,612.221741 321.934662,621.960632 
	C321.934662,621.960632 321.896149,621.917847 321.255676,622.022827 
	C320.177002,623.001099 319.098297,623.979431 317.125549,624.971069 
	C316.643829,622.783081 315.833771,620.605042 315.767212,618.404480 
	C315.691559,615.902649 314.990479,614.787903 312.341034,614.850464 
	C304.228760,615.041992 296.112915,615.081787 287.148529,615.110596 
	C286.745911,617.078735 285.995148,619.046387 285.991882,621.015137 
	C285.921692,663.376770 285.927704,705.738464 285.944519,748.100159 
	C285.946106,752.080261 286.118011,756.060303 286.056946,760.548157 
	C286.360809,760.653992 286.664673,760.759888 287.476196,761.074402 
	C287.652679,761.026184 287.829193,760.977966 288.909058,761.200806 
	C297.670563,761.200806 306.432068,761.200806 315.635376,761.200806 
	C315.635376,758.790955 315.635345,756.991272 315.635376,755.191650 
	C315.635681,734.213135 315.571869,713.234314 315.677795,692.256287 
	C315.707184,686.440796 315.952545,680.595337 316.602417,674.820312 
	C317.971558,662.654114 321.568695,651.607422 333.894562,646.020630 
	C337.481323,644.394897 341.332123,643.351624 345.957184,642.133911 
	C357.993164,640.954834 368.642090,644.994812 379.347687,651.828979 
	C381.220184,643.541199 382.914764,636.040955 384.603333,628.372009 
	C384.603333,628.372009 384.469391,628.269348 384.894836,627.767944 
	C384.946320,626.883850 384.997833,625.999695 385.527802,624.548279 
M400.086090,112.934265 
	C400.086090,112.934265 400.156586,112.881126 399.759125,112.360489 
	C394.508331,109.508606 389.257538,106.656723 383.639282,103.500526 
	C383.639282,103.500526 383.165100,103.553749 382.703735,103.101089 
	C350.507263,89.537750 316.604065,86.630737 282.463837,89.786903 
	C254.783081,92.345901 227.419693,98.219894 199.846893,102.140778 
	C192.124908,103.238861 187.846542,107.448540 184.908569,113.871704 
	C184.908569,113.871704 184.777802,113.778702 184.223358,114.125572 
	C181.953903,117.522881 179.684433,120.920197 177.411087,124.447815 
	C177.411087,124.447815 177.344040,124.559624 176.871231,124.974190 
	C168.867615,136.924347 167.620789,149.564682 173.501465,163.415131 
	C175.944672,171.597839 180.078918,178.811081 186.187546,185.682495 
	C188.660110,189.054184 191.132675,192.425873 193.674088,195.942245 
	C193.674088,195.942245 193.802032,196.038681 194.055878,196.693588 
	C203.180603,209.298355 212.609970,221.698486 221.282318,234.607178 
	C224.823700,239.878494 228.543823,241.870300 234.678818,240.634735 
	C252.682037,237.009018 271.011536,234.660828 288.701569,229.907867 
	C311.731293,223.720230 333.180298,213.377457 352.995453,200.025009 
	C352.995453,200.025009 353.050262,200.079636 353.692627,199.816971 
	C359.763428,195.444626 365.834259,191.072281 372.558258,186.615036 
	C376.424011,183.448318 380.289734,180.281616 384.082123,177.066971 
	C384.082123,177.066971 384.065338,177.152985 384.740570,176.998001 
	C389.913086,172.430374 395.085602,167.862732 400.892456,163.052658 
	C406.059540,158.182648 411.226593,153.312653 416.301086,148.288681 
	C416.301086,148.288681 416.450531,148.388412 416.990814,147.991364 
	C418.857330,145.293579 424.282562,144.604767 422.259705,139.778870 
	C420.640503,135.916061 418.224731,132.387131 416.175812,128.835571 
	C416.175812,128.835571 416.275787,128.758453 416.072540,128.107086 
	C411.144531,123.295326 406.216522,118.483566 401.191833,113.761749 
	C401.191833,113.761749 401.323853,113.759842 401.115723,113.214691 
	C400.766083,113.092491 400.416412,112.970299 400.086090,112.934265 
M175.156174,763.333923 
	C185.382751,765.331726 195.623138,766.318542 206.736908,763.887634 
	C207.500183,763.630554 208.263443,763.373413 209.721954,763.195312 
	C217.190994,759.826965 224.660049,756.458618 232.063324,753.035828 
	C232.063324,753.035828 232.050827,753.120300 232.753998,753.076965 
	C237.808777,748.593567 243.359375,744.550354 247.813232,739.533508 
	C256.578888,729.659851 263.036194,718.405884 265.516266,704.441956 
	C274.708557,659.857544 246.084351,617.603271 201.827835,611.244141 
	C181.540115,608.329041 162.886368,613.111267 146.540649,626.386475 
	C146.150558,626.435669 145.945374,626.629700 145.243805,627.299133 
	C145.158554,627.536682 145.073318,627.774292 144.363220,628.249146 
	C143.108658,629.310669 141.757065,630.277405 140.613922,631.447754 
	C121.249664,651.272217 113.411461,674.727112 118.296837,702.949036 
	C118.529083,703.638794 118.761322,704.328613 118.967125,705.831848 
	C122.278275,713.599609 125.589417,721.367310 128.965042,729.027161 
	C128.965042,729.027161 128.861938,729.099060 128.932983,729.806274 
	C134.480499,738.967896 141.657043,746.550537 150.984512,752.145813 
	C150.984512,752.145813 150.712372,752.257935 150.996582,752.873169 
	C158.145081,757.975159 166.068680,761.243286 175.156174,763.333923 
M441.678253,464.898651 
	C444.115387,462.262756 446.552521,459.626862 449.000000,457.000000 
	C449.000000,457.000000 448.990662,456.989502 449.616394,456.771240 
	C459.950745,443.180145 470.285065,429.589081 480.907196,415.489532 
	C480.932831,415.296478 480.958466,415.103424 481.558685,414.594879 
	C482.764008,412.760681 483.969299,410.926483 485.838776,408.946533 
	C493.188751,399.211121 500.611145,389.528595 507.802216,379.677185 
	C508.760559,378.364319 509.398407,375.762970 508.750549,374.485840 
	C491.146790,339.784729 470.446320,307.279297 440.925873,281.259033 
	C426.874969,268.874115 411.690216,258.384918 393.463379,252.756424 
	C379.665833,248.495712 366.076294,249.612503 352.988922,254.317062 
	C336.150085,260.370178 320.018250,268.437286 303.082703,274.159485 
	C288.873047,278.960663 273.947632,281.643585 259.072510,285.330475 
	C259.676514,286.323059 260.337616,287.606476 261.177063,288.760132 
	C281.449799,316.621094 301.779999,344.440277 322.018585,372.326019 
	C340.413239,397.671112 358.558899,423.198853 377.163391,448.388275 
	C381.677673,454.500366 385.027893,462.029663 393.177795,465.675201 
	C395.497162,466.920074 397.739716,468.343323 400.148438,469.380615 
	C414.573822,475.592712 428.356842,475.380951 441.005676,464.994659 
	C441.005676,464.994659 441.012329,465.028320 441.678253,464.898651 
M540.037598,613.185242 
	C531.248718,613.027283 522.457581,612.738892 513.673889,612.888062 
	C512.657410,612.905334 510.973419,615.277771 510.824463,616.687866 
	C510.424103,620.478210 510.687714,624.338623 510.687714,628.697876 
	C504.598663,624.325928 499.786316,619.938477 494.201843,617.037354 
	C478.010468,608.626038 460.912140,608.502197 443.856354,613.876648 
	C425.012177,619.814575 410.356659,631.254333 400.470673,649.393127 
	C399.949585,650.433960 399.432739,651.476929 398.906830,652.515320 
	C374.508270,700.687012 405.541779,758.560364 456.742218,764.609497 
	C475.512939,766.827271 492.856750,763.213867 507.143250,749.718567 
	C508.004547,748.904907 509.107361,748.346924 510.802673,747.188171 
	C510.802673,752.320068 510.802673,756.581116 510.802673,761.095337 
	C517.498474,761.095337 523.755432,761.095337 530.880493,761.318787 
	C533.262939,761.221313 535.645386,761.123901 538.501038,761.222168 
	C538.657471,761.153809 538.813843,761.085449 539.830200,761.048950 
	C540.152588,759.538391 540.755188,758.028198 540.756775,756.517273 
	C540.804810,710.786987 540.799133,665.056580 540.771362,619.326233 
	C540.770264,617.528625 540.469238,615.731140 540.037598,613.185242 
M564.667358,85.196663 
	C539.748047,98.946098 518.079041,117.004356 497.350006,136.256882 
	C471.454346,160.308014 445.712463,184.524750 419.914154,208.680603 
	C419.138458,209.406860 418.473633,210.251480 417.520111,211.302048 
	C445.698151,223.074112 468.734039,241.149139 489.170746,262.863159 
	C509.618378,284.588776 526.407471,308.957184 540.931091,335.127136 
	C541.896423,334.318542 542.351501,334.061584 542.639099,333.678772 
	C562.201355,307.643066 581.635132,281.509827 601.332397,255.576782 
	C621.115662,229.530533 641.092712,203.630493 661.115112,177.767258 
	C673.552673,161.701614 674.856323,142.726929 663.105957,125.946548 
	C649.162354,106.034103 634.308167,86.761078 620.065369,67.054298 
	C617.924927,64.092712 616.108887,63.368294 612.665833,64.390793 
	C596.052185,69.324677 580.321106,76.239098 564.667358,85.196663 
z"/>
<path fill="#184E8B" opacity="1.000000" stroke="none" 
	d="
M253.003571,45.192337 
	C251.921524,45.417362 250.839462,45.642384 249.096863,45.599903 
	C247.392258,45.017540 246.348175,44.702675 243.819046,43.939953 
	C252.001526,37.768475 254.830261,27.755539 264.644409,23.899227 
	C264.644409,22.136766 264.644409,19.889822 264.644409,17.642878 
	C264.644409,17.642878 264.746765,17.741198 265.054138,17.721088 
	C270.615906,14.750075 275.871216,11.800729 281.124390,8.847598 
	C283.750336,7.371392 286.372375,5.888268 288.996185,4.408273 
	C290.062714,4.279727 291.129272,4.151177 292.899353,4.316895 
	C295.413513,4.740691 297.225159,4.996161 299.034546,4.981179 
	C336.282379,4.672773 373.529785,4.318943 410.777618,4.011201 
	C419.600037,3.938310 428.423950,4.041673 437.246216,3.960344 
	C438.834198,3.945705 440.417480,3.424615 442.368958,3.076246 
	C443.473724,2.958025 444.212463,2.900909 445.226990,3.167987 
	C456.251556,3.655994 467.000824,3.906546 477.748505,3.850990 
	C478.837189,3.845362 479.916382,1.994525 481.000000,0.999993 
	C501.687561,1.000000 522.375122,1.000000 543.531372,0.999996 
	C549.309692,2.575324 554.643250,4.075012 559.924011,5.742078 
	C570.227417,8.994740 579.000000,14.577166 586.591553,23.532122 
	C537.112305,41.252663 496.816254,72.039642 459.295959,107.831787 
	C455.648102,102.917809 452.334686,98.454384 448.985077,93.260086 
	C447.976868,86.749603 441.549103,80.785439 435.409241,79.966148 
	C435.409241,79.966148 435.001923,79.864159 434.821075,79.576744 
	C434.402222,79.134895 434.140686,79.046097 433.855560,79.022919 
	C433.643158,78.935944 433.430725,78.848969 433.066467,78.078384 
	C431.707581,74.493607 429.857147,72.589989 426.392883,73.188690 
	C426.392883,73.188690 426.154480,73.255150 426.045227,72.800949 
	C424.986176,71.054573 424.301575,69.328934 423.035248,68.554230 
	C419.689178,66.507240 416.181061,64.662720 412.575775,63.113918 
	C402.936401,58.972923 393.298676,54.799564 383.484528,51.106171 
	C378.730286,49.316994 373.499908,48.836712 368.627808,47.308811 
	C355.249542,43.113407 341.415253,42.181419 327.578156,41.223358 
	C327.089386,41.189522 326.528107,42.203968 326.000610,42.729836 
	C324.575043,42.715187 323.149445,42.700535 321.173401,42.152710 
	C304.243073,41.524429 287.863251,41.421822 271.483368,41.338470 
	C266.135406,41.311256 260.787201,41.334190 254.634094,41.334190 
	C254.380386,41.934521 253.691971,43.563431 253.003571,45.192337 
z"/>
<path fill="#194E8B" opacity="1.000000" stroke="none" 
	d="
M837.998535,755.702759 
	C837.998535,755.702759 837.743225,756.079102 837.211304,755.981079 
	C835.452087,756.250366 834.224731,756.617737 832.590698,756.990356 
	C828.455444,758.324463 824.726746,759.653320 820.578918,760.994873 
	C807.435120,763.438049 794.594177,764.352661 782.065613,760.680969 
	C774.726318,758.529968 766.968811,755.942322 761.003784,751.430176 
	C753.257080,745.570374 747.255005,737.448669 740.223145,730.586243 
	C733.994324,724.507263 731.151733,716.377380 729.358459,708.697815 
	C726.587402,696.830811 724.619202,684.363647 728.922241,672.141541 
	C731.032776,666.146851 733.119324,660.143738 735.241699,654.153259 
	C736.713318,649.999329 738.227600,645.860596 739.722778,641.715027 
	C739.722778,641.715027 739.750366,641.995239 740.103149,641.921326 
	C743.297668,639.436279 746.271118,637.161621 748.946777,634.578430 
	C752.099243,631.534912 754.993713,628.224243 758.387817,625.016541 
	C764.729431,622.302063 770.770874,619.774963 776.612122,616.848511 
	C782.186401,614.055786 787.854919,612.529724 794.167175,612.915100 
	C799.965271,613.269165 805.814636,612.761597 811.616211,613.085999 
	C814.657288,613.255981 817.618774,614.548340 820.662476,615.056519 
	C823.737488,615.569946 826.869690,615.740662 829.976868,616.061523 
	C830.455444,616.198547 830.933960,616.335510 831.810547,616.980957 
	C834.058777,619.011841 835.781128,620.735474 837.788330,622.010986 
	C841.050720,624.084290 844.893372,625.405396 847.774353,627.878845 
	C851.782471,631.319946 855.046021,635.615234 858.817200,639.354370 
	C859.761658,640.290833 861.427979,640.499268 862.762512,641.042236 
	C871.599976,651.678467 875.877930,664.255066 878.662354,677.805481 
	C879.000000,684.021179 879.000000,690.042297 879.000000,696.531738 
	C878.560669,696.968079 878.121338,696.936096 877.236816,696.473877 
	C875.259766,695.697388 873.728394,695.051392 872.196045,695.048889 
	C837.299255,694.991821 802.402222,694.951965 767.505981,695.095520 
	C764.354431,695.108459 761.208069,696.389587 758.059326,697.081787 
	C758.059326,697.081787 758.074158,697.005188 757.718018,697.054932 
	C756.799927,698.505371 755.394104,700.268616 755.814575,701.247314 
	C758.336487,707.117615 761.095642,712.909729 764.213562,718.482910 
	C764.951904,719.802612 767.366821,720.184387 769.010498,720.997620 
	C769.010498,720.997620 769.000000,721.000000 769.001343,721.365295 
	C773.159912,728.428345 779.530273,732.692017 786.678467,734.782288 
	C801.939270,739.244812 816.516785,737.722290 829.673218,727.605530 
	C831.936157,725.865417 833.407715,724.684875 832.886108,721.849182 
	C832.886108,721.849182 832.943604,721.922119 833.155640,721.825256 
	C833.535828,721.411804 833.703918,721.095154 833.872009,720.778564 
	C833.872009,720.778564 833.864319,720.880371 834.205994,720.905762 
	C836.257141,719.800537 838.742554,719.053406 839.527161,717.465820 
	C841.680664,713.108337 844.442627,713.944153 848.170166,714.930359 
	C853.897095,716.445496 858.123352,721.419128 864.621582,721.278992 
	C867.450500,721.217896 867.732849,724.172729 866.159363,726.162109 
	C862.231873,731.127441 857.923706,735.791870 854.003235,740.762451 
	C853.055603,741.963806 853.018250,743.883118 852.562317,745.472290 
	C852.562317,745.472290 852.459900,745.468750 852.090088,745.371338 
	C848.811157,747.180115 845.901917,749.086182 842.633179,751.061401 
	C842.030029,751.934326 841.786438,752.738037 841.542908,753.541748 
	C841.542908,753.541748 841.432068,753.342896 841.089966,753.289917 
	C839.839172,753.496216 838.930603,753.755432 838.012634,754.296021 
	C838.001709,754.952454 838.000183,755.327637 837.998535,755.702759 
M841.522217,668.744202 
	C841.085510,667.051697 841.020691,665.134399 840.154724,663.701355 
	C831.277405,649.011963 818.555298,640.295898 801.047058,640.445068 
	C783.047729,640.598389 770.712708,650.105957 762.143921,665.452087 
	C760.321777,668.715454 762.179626,668.648010 764.273254,669.939453 
	C767.239563,673.220093 770.841125,670.925903 774.116638,670.941284 
	C796.894226,671.047913 819.672607,670.997559 842.450684,670.997559 
	C842.765137,670.724548 843.079590,670.451538 843.394043,670.178528 
	C842.628418,669.884338 841.862854,669.590149 841.522217,668.744202 
z"/>
<path fill="#194E8B" opacity="1.000000" stroke="none" 
	d="
M0.999999,762.000000 
	C1.000000,687.645752 1.000000,613.291565 1.468657,538.468628 
	C20.934690,538.000000 39.932068,537.994873 58.929443,538.001404 
	C78.682091,538.008179 98.435127,537.983887 118.186165,538.169739 
	C119.134773,538.178711 120.807709,540.032593 120.885307,541.117432 
	C121.429405,548.724548 121.642570,556.355408 121.496796,563.978943 
	C91.688011,563.981934 62.344006,563.984558 33.091061,563.591309 
	C35.011765,562.792847 36.840202,562.046448 38.671234,562.040039 
	C61.442581,561.960144 84.214302,561.987793 106.985931,561.987793 
	C108.569336,561.987793 110.152733,561.987793 111.736137,561.987793 
	C86.907761,561.014648 62.164249,561.011475 37.420734,561.016968 
	C31.081818,561.018372 30.470619,561.611755 29.677832,568.085144 
	C28.919382,568.405762 28.460222,568.728516 28.002441,569.293884 
	C28.003824,569.536438 27.990782,570.021362 27.693932,570.311890 
	C27.269154,571.245911 27.030182,571.889221 27.029442,572.532776 
	C27.007698,591.464600 26.991123,610.396423 27.050756,629.328064 
	C27.054611,630.551758 27.674744,631.773499 28.011652,632.996887 
	C28.015104,632.997620 28.040182,632.995117 28.069254,633.346680 
	C29.571774,638.920288 33.694324,636.976196 37.061066,636.979187 
	C57.205158,636.997009 77.350662,637.112732 97.492226,636.887085 
	C101.602203,636.841064 103.662369,638.610535 103.760971,642.113220 
	C103.944557,648.635132 103.495110,655.174988 103.315315,661.491089 
	C99.318878,662.122681 96.546814,662.938599 93.774818,662.938354 
	C73.644211,662.936462 53.513607,662.742920 33.383106,662.757080 
	C32.597672,662.757629 31.813292,664.248108 31.028419,665.044312 
	C31.028421,665.044312 30.973368,665.043457 30.648121,665.046387 
	C29.898352,665.036133 29.473833,665.023010 28.783535,665.007019 
	C28.340889,665.005310 28.164021,665.006348 27.692410,665.302246 
	C27.267580,667.409363 27.026474,669.221436 27.023966,671.033813 
	C26.982460,701.031067 26.970930,731.028320 26.526876,761.023438 
	C17.734041,761.347595 9.367020,761.673767 0.999999,762.000000 
z"/>
<path fill="#285280" opacity="1.000000" stroke="none" 
	d="
M121.961578,563.978638 
	C121.642570,556.355408 121.429405,548.724548 120.885307,541.117432 
	C120.807709,540.032593 119.134773,538.178711 118.186165,538.169739 
	C98.435127,537.983887 78.682091,538.008179 58.929443,538.001404 
	C39.932068,537.994873 20.934690,538.000000 1.468657,538.000000 
	C1.000000,537.555542 1.000000,537.111084 1.000000,536.333252 
	C39.756599,536.044067 78.513199,536.088257 117.269798,536.132019 
	C119.081696,536.134094 120.893585,536.132324 122.576370,536.132324 
	C122.576370,546.296204 122.576370,556.085510 122.242989,565.498169 
	C121.926933,564.740540 121.944260,564.359619 121.961578,563.978638 
z"/>
<path fill="#234D7E" opacity="1.000000" stroke="none" 
	d="
M442.002930,3.137352 
	C440.417480,3.424615 438.834198,3.945705 437.246216,3.960344 
	C428.423950,4.041673 419.600037,3.938310 410.777618,4.011201 
	C373.529785,4.318943 336.282379,4.672773 299.034546,4.981179 
	C297.225159,4.996161 295.413513,4.740691 293.306335,4.318711 
	C298.066650,3.574683 303.116547,2.865336 308.182037,2.727533 
	C317.474854,2.474729 326.776855,2.558952 336.954559,2.488413 
	C363.549103,2.304045 389.264160,2.144640 414.978729,1.923960 
	C415.988403,1.915295 416.993011,1.321277 418.000000,1.000002 
	C422.356903,1.000000 426.713806,1.000000 431.669647,1.377207 
	C435.513367,2.215394 438.758148,2.676373 442.002930,3.137352 
z"/>
<path fill="#285280" opacity="1.000000" stroke="none" 
	d="
M690.958679,880.890442 
	C679.191223,887.926392 666.226746,891.112488 652.783203,892.751831 
	C651.306824,892.931885 649.824585,893.063049 648.172485,893.608398 
	C642.977905,894.000000 637.955811,894.000000 632.466858,894.000000 
	C627.162170,893.123413 622.321045,892.264709 617.488220,891.361389 
	C615.569397,891.002686 613.669067,890.544983 611.721924,889.709961 
	C614.796265,889.470581 617.906860,889.718201 621.022217,889.824890 
	C632.468323,890.217224 643.943542,891.186157 655.352417,890.682373 
	C661.775696,890.398743 668.120728,887.764771 674.445068,885.990356 
	C679.990112,884.434692 685.457153,882.601196 690.958679,880.890442 
z"/>
<path fill="#F4F9FA" opacity="1.000000" stroke="none" 
	d="
M417.531342,1.000002 
	C416.993011,1.321277 415.988403,1.915295 414.978729,1.923960 
	C389.264160,2.144640 363.549103,2.304045 337.392822,2.331498 
	C336.959442,1.924508 336.972229,1.660413 336.994904,1.198276 
	C363.687561,1.000000 390.375122,1.000000 417.531342,1.000002 
z"/>
<path fill="#234D7E" opacity="1.000000" stroke="none" 
	d="
M480.533875,0.999993 
	C479.916382,1.994525 478.837189,3.845362 477.748505,3.850990 
	C467.000824,3.906546 456.251556,3.655994 445.495056,2.834398 
	C447.641388,2.099840 449.798126,2.068104 451.948822,1.937047 
	C456.634155,1.651531 461.316467,1.315427 466.000000,0.999999 
	C470.689240,1.000000 475.378510,1.000000 480.533875,0.999993 
z"/>
<path fill="#285280" opacity="1.000000" stroke="none" 
	d="
M0.999999,762.333252 
	C9.367020,761.673767 17.734041,761.347595 26.643517,761.194153 
	C27.494810,761.229736 27.803652,761.092529 28.291414,760.966675 
	C28.470335,760.978027 28.827890,761.004883 29.136169,761.004639 
	C29.854479,760.984802 30.264505,760.965149 30.674534,760.945557 
	C31.388985,764.156372 29.092468,763.525330 27.341513,763.533508 
	C18.852365,763.573181 10.363143,763.596069 1.436973,763.812439 
	C1.000000,763.555542 1.000000,763.111084 0.999999,762.333252 
z"/>
<path fill="#A0CCFA" opacity="1.000000" stroke="none" 
	d="
M465.531342,0.999999 
	C461.316467,1.315427 456.634155,1.651531 451.948822,1.937047 
	C449.798126,2.068104 447.641388,2.099840 445.219299,2.510204 
	C444.212463,2.900909 443.473724,2.958025 442.368958,3.076247 
	C438.758148,2.676373 435.513367,2.215394 432.134277,1.377207 
	C443.020905,1.000000 454.041779,1.000000 465.531342,0.999999 
z"/>
<path fill="#184E8B" opacity="1.000000" stroke="none" 
	d="
M564.981079,85.008400 
	C580.321106,76.239098 596.052185,69.324677 612.665833,64.390793 
	C616.108887,63.368294 617.924927,64.092712 620.065369,67.054298 
	C634.308167,86.761078 649.162354,106.034103 663.105957,125.946548 
	C674.856323,142.726929 673.552673,161.701614 661.115112,177.767258 
	C641.092712,203.630493 621.115662,229.530533 601.332397,255.576782 
	C581.635132,281.509827 562.201355,307.643066 542.639099,333.678772 
	C542.351501,334.061584 541.896423,334.318542 540.931091,335.127136 
	C526.407471,308.957184 509.618378,284.588776 489.170746,262.863159 
	C468.734039,241.149139 445.698151,223.074112 417.520111,211.302048 
	C418.473633,210.251480 419.138458,209.406860 419.914154,208.680603 
	C445.712463,184.524750 471.454346,160.308014 497.350006,136.256882 
	C518.079041,117.004356 539.748047,98.946098 564.981079,85.008400 
z"/>
<path fill="#184E8B" opacity="1.000000" stroke="none" 
	d="
M480.984070,414.910400 
	C480.958466,415.103424 480.932831,415.296478 480.401581,415.748840 
	C477.648865,417.463165 474.826324,418.469513 473.271057,420.464050 
	C469.712738,425.027313 466.941254,430.194824 463.540649,434.892853 
	C459.344513,440.689972 454.739471,446.190857 450.531067,451.979645 
	C449.559265,453.316406 449.480408,455.302307 448.990662,456.989502 
	C448.990662,456.989502 449.000000,457.000000 448.625244,457.000580 
	C444.014771,458.033081 441.648682,460.750824 441.012329,465.028320 
	C441.012329,465.028320 441.005676,464.994659 440.625305,464.994934 
	C438.819702,465.343567 437.218109,465.386047 435.997711,466.089661 
	C427.921204,470.745941 419.753540,473.872467 410.451599,469.409912 
	C409.071625,468.747864 407.193268,469.159424 405.554016,468.991119 
	C404.425079,468.875183 402.629089,468.978638 402.300537,468.361481 
	C400.125122,464.275513 396.423187,465.076141 392.940369,465.048157 
	C385.027893,462.029663 381.677673,454.500366 377.163391,448.388275 
	C358.558899,423.198853 340.413239,397.671112 322.018585,372.326019 
	C301.779999,344.440277 281.449799,316.621094 261.177063,288.760132 
	C260.337616,287.606476 259.676514,286.323059 259.072510,285.330475 
	C273.947632,281.643585 288.873047,278.960663 303.082703,274.159485 
	C320.018250,268.437286 336.150085,260.370178 352.988922,254.317062 
	C366.076294,249.612503 379.665833,248.495712 393.463379,252.756424 
	C411.690216,258.384918 426.874969,268.874115 440.925873,281.259033 
	C470.446320,307.279297 491.146790,339.784729 508.750549,374.485840 
	C509.398407,375.762970 508.760559,378.364319 507.802216,379.677185 
	C500.611145,389.528595 493.188751,399.211121 485.121216,408.999268 
	C483.263824,411.004791 482.123932,412.957581 480.984070,414.910400 
z"/>
<path fill="#184D8B" opacity="1.000000" stroke="none" 
	d="
M383.165100,103.553741 
	C383.165100,103.553749 383.639282,103.500526 383.944397,103.980301 
	C389.292267,107.757507 392.847107,113.865494 400.156586,112.881126 
	C400.156586,112.881126 400.086090,112.934265 400.190552,113.153038 
	C400.637970,113.501152 400.980896,113.630501 401.323853,113.759842 
	C401.323853,113.759842 401.191833,113.761749 401.155518,114.103691 
	C401.367706,115.358383 401.331818,116.552208 401.910980,117.138123 
	C405.580566,120.850601 409.332092,124.488228 413.197235,127.995552 
	C413.886597,128.621063 415.232849,128.522614 416.275787,128.758453 
	C416.275787,128.758453 416.175812,128.835571 416.244751,129.165100 
	C417.195435,135.636063 422.769257,141.778214 416.320465,147.931259 
	C416.267029,147.982239 416.402985,148.231644 416.450531,148.388412 
	C416.450531,148.388412 416.301086,148.288681 415.961212,148.237595 
	C413.965851,149.009872 411.983948,149.495438 410.716400,150.720276 
	C406.988281,154.322739 403.543640,158.218521 399.704590,161.882690 
	C398.631439,162.158218 397.841675,162.550522 396.776367,163.141251 
	C395.930603,163.917618 395.283081,164.437973 394.802643,165.082794 
	C391.572296,169.418671 384.911407,170.703659 384.065338,177.152985 
	C384.065338,177.152985 384.082123,177.066971 383.722656,177.050262 
	C377.768890,177.988586 374.200073,181.730637 370.660828,186.041458 
	C365.067413,189.463806 359.762817,192.751785 354.657593,196.324677 
	C353.709991,196.987854 353.565460,198.798553 353.050262,200.079636 
	C353.050262,200.079636 352.995453,200.025009 352.623413,200.019547 
	C349.221161,201.100357 346.049530,201.903275 343.189514,203.330597 
	C336.798706,206.519974 330.679596,210.268738 324.219452,213.298340 
	C320.540985,215.023422 316.110046,216.270615 312.948608,218.009354 
	C307.155609,221.195389 301.467224,224.193100 295.105865,225.808319 
	C284.262085,228.561646 273.408051,231.312408 262.466736,233.632141 
	C253.525177,235.527893 244.489517,237.154160 235.413269,238.148666 
	C232.103333,238.511337 227.810425,239.717804 225.139450,235.801437 
	C221.471451,230.423233 217.909760,224.969086 214.118378,219.679443 
	C210.490784,214.618240 207.068359,209.287262 202.714355,204.912186 
	C199.773346,201.956955 199.336517,196.333511 193.802032,196.038681 
	C193.802032,196.038681 193.674088,195.942245 193.737045,195.448303 
	C192.905228,190.269745 191.666016,185.859756 185.906601,185.053482 
	C180.078918,178.811081 175.944672,171.597839 173.256165,162.717834 
	C173.167786,159.243042 174.147400,156.187790 173.321716,153.742020 
	C171.162308,147.345657 172.189880,141.416870 174.254272,135.351227 
	C175.458359,131.813309 176.325378,128.160660 177.344040,124.559624 
	C177.344040,124.559624 177.411087,124.447815 177.776184,124.563583 
	C183.479385,122.948914 184.948318,118.862869 184.777802,113.778702 
	C184.777802,113.778702 184.908569,113.871704 185.178680,113.793694 
	C186.531143,112.980362 188.045654,112.488968 188.621979,111.467995 
	C191.286545,106.747597 195.351791,105.022835 200.557709,104.156609 
	C211.175781,102.389832 221.640747,99.715057 232.246277,97.856529 
	C240.045502,96.489792 247.955902,95.713036 255.838135,94.874229 
	C268.804565,93.494370 281.762970,91.704620 294.770813,91.129631 
	C312.918121,90.327461 331.066376,91.224525 348.911163,95.076294 
	C355.282288,96.451500 361.564667,98.289726 367.812653,100.165955 
	C372.196259,101.482315 376.429993,103.292992 380.792938,104.688148 
	C381.400635,104.882469 382.365540,103.959503 383.165100,103.553741 
z"/>
<path fill="#1A4E8B" opacity="1.000000" stroke="none" 
	d="
M691.260986,880.846436 
	C685.457153,882.601196 679.990112,884.434692 674.445068,885.990356 
	C668.120728,887.764771 661.775696,890.398743 655.352417,890.682373 
	C643.943542,891.186157 632.468323,890.217224 621.022217,889.824890 
	C617.906860,889.718201 614.796265,889.470581 611.377197,889.536865 
	C591.829224,885.070190 575.145874,876.323059 564.024475,859.212219 
	C552.471191,841.437012 551.656433,823.011841 562.242371,804.618713 
	C566.064331,797.978088 571.317749,792.161377 576.153259,785.651855 
	C565.752747,771.406250 565.968872,755.912109 574.866394,740.281250 
	C576.581665,737.267883 575.105835,735.828918 573.664917,733.799927 
	C559.260254,713.516235 554.847290,691.297607 560.847046,667.079346 
	C573.226135,617.110474 629.340942,594.151123 672.962402,621.294312 
	C675.524780,622.888672 676.865540,622.871582 679.276062,620.747070 
	C688.826843,612.329651 700.302307,610.033813 713.099487,611.333557 
	C713.099487,621.294189 713.099487,631.184387 713.099487,641.494141 
	C709.945801,641.673218 706.976257,641.647644 704.065491,642.048706 
	C698.523499,642.812256 697.179688,645.149048 699.694092,650.148560 
	C709.563721,669.773254 711.902771,690.186096 704.860413,711.012146 
	C695.235107,739.476318 675.881104,757.510925 645.133728,762.789734 
	C636.947937,762.264893 629.470642,762.111694 621.718506,761.685425 
	C616.071716,759.580200 610.709045,757.720337 605.318542,755.944641 
	C604.469482,755.664917 603.440735,755.533813 602.587891,755.732666 
	C599.160583,756.531433 596.365845,760.971741 597.195129,764.092468 
	C598.409973,768.663879 601.186829,770.281433 605.954834,769.195068 
	C606.436340,769.238098 606.917908,769.281067 607.731079,769.882446 
	C608.462158,770.917969 608.831604,771.781860 609.265320,771.815491 
	C619.143066,772.581299 629.019897,773.429260 638.914185,773.889099 
	C645.797913,774.209106 652.728577,773.630493 659.601135,774.054993 
	C674.581055,774.980286 688.848633,778.620483 701.269104,787.433411 
	C704.735413,789.892944 707.614136,793.311768 710.359009,796.624634 
	C714.076599,801.111267 718.795288,805.443054 720.596985,810.694702 
	C723.837585,820.140503 725.488098,830.158508 722.071533,840.264221 
	C721.145691,843.002563 721.355713,846.124817 721.044434,849.070862 
	C721.044434,849.070862 720.995422,849.021057 720.670349,849.053650 
	C718.283020,851.688721 716.064880,854.184753 714.196838,856.919922 
	C711.702942,860.571411 709.480835,864.408630 707.141968,868.166138 
	C707.142029,868.166138 707.045776,868.027893 706.734741,868.073181 
	C701.786011,871.252502 697.106567,874.328491 692.563660,877.594360 
	C691.999390,878.000000 692.159180,879.412781 691.983459,880.358887 
	C691.843384,880.506775 691.703369,880.654602 691.260986,880.846436 
M661.778687,802.048462 
	C660.086975,801.699097 658.403809,801.098877 656.702148,801.040710 
	C644.821045,800.634827 632.937622,800.208862 621.051697,800.077393 
	C616.368286,800.025513 611.676758,800.710999 606.858582,801.234619 
	C606.858582,801.234619 606.642944,801.207642 605.757812,801.101624 
	C604.912964,801.937195 604.068054,802.772705 603.046936,804.224304 
	C598.820374,808.619690 594.195740,812.703979 590.460449,817.483337 
	C584.844543,824.669067 583.669250,833.094482 588.764587,840.744080 
	C592.143677,845.817078 596.965210,850.610657 602.232239,853.619080 
	C619.165771,863.291504 637.833252,864.246582 656.532593,861.027161 
	C669.449890,858.803284 681.322144,853.596069 689.799377,842.660645 
	C699.005127,830.785583 696.396667,816.223572 683.103882,809.397766 
	C677.456604,806.497925 671.035706,805.104675 664.833923,802.684570 
	C664.566895,802.766479 664.299927,802.848389 663.350769,803.081116 
	C662.897644,802.990784 662.444580,802.900452 661.778687,802.048462 
M595.540649,712.864197 
	C606.984558,730.088745 626.467529,738.093689 644.576172,733.011353 
	C676.430298,724.071289 689.446777,683.649231 668.878296,657.542297 
	C650.184387,633.814636 616.625488,633.349060 598.556152,657.098145 
	C585.366821,674.433228 584.803467,693.155151 595.540649,712.864197 
z"/>
<path fill="#1A4F8B" opacity="1.000000" stroke="none" 
	d="
M530.012329,761.095337 
	C523.755432,761.095337 517.498474,761.095337 510.802673,761.095337 
	C510.802673,756.581116 510.802673,752.320068 510.802673,747.188171 
	C509.107361,748.346924 508.004547,748.904907 507.143250,749.718567 
	C492.856750,763.213867 475.512939,766.827271 456.742218,764.609497 
	C405.541779,758.560364 374.508270,700.687012 398.906830,652.515320 
	C399.432739,651.476929 399.949585,650.433960 401.126526,649.191406 
	C403.113525,647.915955 404.969635,647.114197 405.689667,645.723938 
	C410.034729,637.334717 417.110596,631.119934 424.474792,626.204651 
	C436.291443,618.317505 448.947723,611.062195 464.316681,612.960510 
	C465.954681,613.162842 467.662231,613.170044 469.298187,612.960449 
	C478.685486,611.758118 487.059998,615.145264 494.975189,619.314209 
	C499.047241,621.458984 502.133453,625.435242 505.789062,628.432800 
	C507.070099,629.483154 508.841095,630.909424 510.179504,630.716370 
	C513.085144,630.297241 513.025818,627.955078 512.749512,625.317627 
	C512.399170,621.974243 512.884338,618.543396 513.474976,615.100952 
	C520.430725,615.042480 526.931274,615.256653 533.406799,614.947266 
	C537.859985,614.734619 539.087952,616.434143 539.075928,620.733032 
	C538.944702,667.494141 538.980164,714.255615 538.970276,761.017029 
	C538.813843,761.085449 538.657471,761.153809 537.994385,760.837158 
	C534.995911,760.666565 532.504150,760.880920 530.012329,761.095337 
M425.906494,710.436951 
	C441.280121,738.539124 476.512421,744.258667 498.290436,720.711243 
	C516.488586,701.034546 515.425842,668.597900 493.421631,650.545654 
	C472.555267,633.427002 440.200775,639.476135 427.260345,662.992859 
	C418.783875,678.397278 418.366425,693.928833 425.906494,710.436951 
z"/>
<path fill="#194F8B" opacity="1.000000" stroke="none" 
	d="
M146.859253,626.472595 
	C162.886368,613.111267 181.540115,608.329041 201.827835,611.244141 
	C246.084351,617.603271 274.708557,659.857544 264.897278,704.795288 
	C260.826874,712.363892 257.891815,719.891052 253.776627,726.705505 
	C249.783630,733.317627 244.709396,739.302856 239.848984,745.353760 
	C237.565582,748.196411 234.669357,750.546814 232.050842,753.120300 
	C232.050827,753.120300 232.063324,753.035828 231.679886,753.039429 
	C228.100204,754.099304 224.769226,754.866943 221.739868,756.280823 
	C217.386917,758.312439 213.253723,760.814880 209.026703,763.116333 
	C208.263443,763.373413 207.500183,763.630554 206.249649,763.459900 
	C204.114182,762.875671 202.468735,762.676147 200.817291,762.570068 
	C192.548691,762.038879 184.278534,761.532349 175.620239,761.004395 
	C173.043961,760.280334 170.835052,759.627747 168.672745,758.846313 
	C162.675583,756.678833 156.697815,754.457825 150.712372,752.257935 
	C150.712372,752.257935 150.984512,752.145813 150.937210,751.833679 
	C149.681808,749.953735 148.613220,748.249573 147.239273,746.843811 
	C143.248352,742.760864 139.157761,738.774170 135.059967,734.797363 
	C133.046738,732.843567 130.931183,730.995178 128.861938,729.099060 
	C128.861938,729.099060 128.965042,729.027161 128.964233,728.665405 
	C127.150795,723.266052 125.496819,718.163269 123.464676,713.215942 
	C122.289139,710.354065 120.504211,707.742554 118.993553,705.018372 
	C118.761322,704.328613 118.529083,703.638794 118.729973,702.367065 
	C119.232536,700.064087 119.563553,698.306641 119.330086,696.627686 
	C117.444519,683.067932 119.333763,669.833557 125.186081,657.726379 
	C129.004486,649.826843 135.313889,643.143188 140.388962,635.832642 
	C142.108719,633.355408 143.465454,630.626099 144.988068,628.011963 
	C145.073318,627.774292 145.158554,627.536682 145.715485,627.108643 
	C146.460220,626.843994 146.684265,626.695496 146.859253,626.472595 
M146.805405,688.503174 
	C148.233261,695.085327 148.550964,702.175659 151.289734,708.157654 
	C160.869919,729.082886 180.721985,738.873474 200.879578,734.374390 
	C230.704666,727.717468 245.922806,694.365540 232.499069,666.869995 
	C222.333725,646.048645 200.388351,635.790344 179.019791,642.396423 
	C160.198410,648.215027 146.472946,667.593079 146.805405,688.503174 
z"/>
<path fill="#1A4F8B" opacity="1.000000" stroke="none" 
	d="
M383.195221,619.548889 
	C383.195221,619.548889 383.674530,619.563599 383.867004,620.089722 
	C384.334656,621.767151 384.609772,622.918396 384.621460,624.325806 
	C384.395111,625.811096 384.432251,627.040222 384.469391,628.269348 
	C384.469391,628.269348 384.603333,628.372009 384.200989,628.336121 
	C382.534393,631.634888 381.059021,634.908142 380.066254,638.321777 
	C379.106659,641.621460 378.644257,645.065796 378.127014,647.634277 
	C371.604095,645.304138 365.976501,642.501282 360.035736,641.421326 
	C355.240448,640.549683 350.067383,641.756531 345.061890,642.041321 
	C341.332123,643.351624 337.481323,644.394897 333.894562,646.020630 
	C321.568695,651.607422 317.971558,662.654114 316.602417,674.820312 
	C315.952545,680.595337 315.707184,686.440796 315.677795,692.256287 
	C315.571869,713.234314 315.635681,734.213135 315.635376,755.191650 
	C315.635345,756.991272 315.635376,758.790955 315.635376,761.200806 
	C306.432068,761.200806 297.670563,761.200806 288.451630,760.601440 
	C287.995605,711.728271 287.997009,663.454468 287.998444,615.180664 
	C296.112915,615.081787 304.228760,615.041992 312.341034,614.850464 
	C314.990479,614.787903 315.691559,615.902649 315.767212,618.404480 
	C315.833771,620.605042 316.643829,622.783081 317.961456,624.980713 
	C319.830292,623.966125 320.863220,622.941956 321.896118,621.917847 
	C321.896149,621.917847 321.934662,621.960632 322.288330,621.964722 
	C325.003265,621.229126 327.430450,620.645752 329.700684,619.689758 
	C331.015747,619.135986 331.961151,617.488647 333.273071,617.177673 
	C342.743652,614.932556 352.189240,612.479675 362.101593,614.771057 
	C366.705658,615.835327 371.461548,616.242554 376.148621,616.947632 
	C376.148621,616.947632 376.585510,616.952026 376.834625,617.376343 
	C378.631226,620.095154 380.208862,622.284241 383.195221,619.548889 
z"/>
<path fill="#285280" opacity="1.000000" stroke="none" 
	d="
M193.928955,196.366135 
	C199.336517,196.333511 199.773346,201.956955 202.714355,204.912186 
	C207.068359,209.287262 210.490784,214.618240 214.118378,219.679443 
	C217.909760,224.969086 221.471451,230.423233 225.139450,235.801437 
	C227.810425,239.717804 232.103333,238.511337 235.413269,238.148666 
	C244.489517,237.154160 253.525177,235.527893 262.466736,233.632141 
	C273.408051,231.312408 284.262085,228.561646 295.105865,225.808319 
	C301.467224,224.193100 307.155609,221.195389 312.948608,218.009354 
	C316.110046,216.270615 320.540985,215.023422 324.219452,213.298340 
	C330.679596,210.268738 336.798706,206.519974 343.189514,203.330597 
	C346.049530,201.903275 349.221161,201.100357 352.661041,200.028625 
	C333.180298,213.377457 311.731293,223.720230 288.701569,229.907867 
	C271.011536,234.660828 252.682037,237.009018 234.678818,240.634735 
	C228.543823,241.870300 224.823700,239.878494 221.282318,234.607178 
	C212.609970,221.698486 203.180603,209.298355 193.928955,196.366135 
z"/>
<path fill="#214C77" opacity="1.000000" stroke="none" 
	d="
M739.466614,641.919800 
	C738.227600,645.860596 736.713318,649.999329 735.241699,654.153259 
	C733.119324,660.143738 731.032776,666.146851 728.922241,672.141541 
	C724.619202,684.363647 726.587402,696.830811 729.358459,708.697815 
	C731.151733,716.377380 733.994324,724.507263 740.223145,730.586243 
	C747.255005,737.448669 753.257080,745.570374 761.003784,751.430176 
	C766.968811,755.942322 774.726318,758.529968 782.065613,760.680969 
	C794.594177,764.352661 807.435120,763.438049 820.724121,761.233643 
	C821.800720,761.624573 822.312866,761.789551 822.825073,761.954529 
	C798.943848,768.783264 776.756653,765.047974 756.556213,750.724426 
	C728.436462,730.785522 716.821411,693.297913 728.991272,661.373413 
	C731.559082,654.637451 735.761292,648.524536 739.466614,641.919800 
z"/>
<path fill="#29507D" opacity="1.000000" stroke="none" 
	d="
M382.934418,103.327415 
	C382.365540,103.959503 381.400635,104.882469 380.792938,104.688148 
	C376.429993,103.292992 372.196259,101.482315 367.812653,100.165955 
	C361.564667,98.289726 355.282288,96.451500 348.911163,95.076294 
	C331.066376,91.224525 312.918121,90.327461 294.770813,91.129631 
	C281.762970,91.704620 268.804565,93.494370 255.838135,94.874229 
	C247.955902,95.713036 240.045502,96.489792 232.246277,97.856529 
	C221.640747,99.715057 211.175781,102.389832 200.557709,104.156609 
	C195.351791,105.022835 191.286545,106.747597 188.621979,111.467995 
	C188.045654,112.488968 186.531143,112.980362 185.099762,113.779144 
	C187.846542,107.448540 192.124908,103.238861 199.846893,102.140778 
	C227.419693,98.219894 254.783081,92.345901 282.463837,89.786903 
	C316.604065,86.630737 350.507263,89.537750 382.934418,103.327415 
z"/>
<path fill="#285280" opacity="1.000000" stroke="none" 
	d="
M721.333984,848.869507 
	C721.355713,846.124817 721.145691,843.002563 722.071533,840.264221 
	C725.488098,830.158508 723.837585,820.140503 720.596985,810.694702 
	C718.795288,805.443054 714.076599,801.111267 710.359009,796.624634 
	C707.614136,793.311768 704.735413,789.892944 701.269104,787.433411 
	C688.848633,778.620483 674.581055,774.980286 659.601135,774.054993 
	C652.728577,773.630493 645.797913,774.209106 638.914185,773.889099 
	C629.019897,773.429260 619.143066,772.581299 609.265320,771.815491 
	C608.831604,771.781860 608.462158,770.917969 608.028564,770.095276 
	C619.084351,770.414368 630.173767,771.610168 641.264709,771.624817 
	C660.022888,771.649536 678.413269,772.672546 695.684387,781.214478 
	C721.857666,794.159119 732.479614,821.438660 721.333984,848.869507 
z"/>
<path fill="#29507D" opacity="1.000000" stroke="none" 
	d="
M513.009155,615.150269 
	C512.884338,618.543396 512.399170,621.974243 512.749512,625.317627 
	C513.025818,627.955078 513.085144,630.297241 510.179504,630.716370 
	C508.841095,630.909424 507.070099,629.483154 505.789062,628.432800 
	C502.133453,625.435242 499.047241,621.458984 494.975189,619.314209 
	C487.059998,615.145264 478.685486,611.758118 469.298187,612.960449 
	C467.662231,613.170044 465.954681,613.162842 464.316681,612.960510 
	C448.947723,611.062195 436.291443,618.317505 424.474792,626.204651 
	C417.110596,631.119934 410.034729,637.334717 405.689667,645.723938 
	C404.969635,647.114197 403.113525,647.915955 401.413574,648.997986 
	C410.356659,631.254333 425.012177,619.814575 443.856354,613.876648 
	C460.912140,608.502197 478.010468,608.626038 494.201843,617.037354 
	C499.786316,619.938477 504.598663,624.325928 510.687714,628.697876 
	C510.687714,624.338623 510.424103,620.478210 510.824463,616.687866 
	C510.973419,615.277771 512.657410,612.905334 513.673889,612.888062 
	C522.457581,612.738892 531.248718,613.027283 539.680664,613.592651 
	C532.560547,614.009705 525.795532,613.936035 519.035217,614.080261 
	C517.019836,614.123230 515.017517,614.776611 513.009155,615.150269 
z"/>
<path fill="#285280" opacity="1.000000" stroke="none" 
	d="
M31.493938,665.008545 
	C31.813292,664.248108 32.597672,662.757629 33.383106,662.757080 
	C53.513607,662.742920 73.644211,662.936462 93.774818,662.938354 
	C96.546814,662.938599 99.318878,662.122681 103.315315,661.491089 
	C103.495110,655.174988 103.944557,648.635132 103.760971,642.113220 
	C103.662369,638.610535 101.602203,636.841064 97.492226,636.887085 
	C77.350662,637.112732 57.205158,636.997009 37.061066,636.979187 
	C33.694324,636.976196 29.571774,638.920288 28.283966,633.347534 
	C28.469604,632.996826 28.899796,633.009766 29.198223,633.007690 
	C29.893438,632.986511 30.290226,632.967407 30.687010,632.948303 
	C32.375961,633.580017 34.061668,634.751282 35.754368,634.761475 
	C57.047810,634.889771 78.342255,634.850342 99.636436,634.853760 
	C101.453278,634.854065 103.270126,634.853821 105.533310,634.853821 
	C105.533310,644.864624 105.533310,654.569702 105.533310,664.972778 
	C81.064201,664.972778 56.511829,664.972778 31.493938,665.008545 
z"/>
<path fill="#0E3B6D" opacity="1.000000" stroke="none" 
	d="
M513.475037,615.100952 
	C515.017517,614.776611 517.019836,614.123230 519.035217,614.080261 
	C525.795532,613.936035 532.560547,614.009705 539.815918,613.966797 
	C540.469238,615.731140 540.770264,617.528625 540.771362,619.326233 
	C540.799133,665.056580 540.804810,710.786987 540.756775,756.517273 
	C540.755188,758.028198 540.152588,759.538391 539.400269,761.032959 
	C538.980164,714.255615 538.944702,667.494141 539.075928,620.733032 
	C539.087952,616.434143 537.859985,614.734619 533.406799,614.947266 
	C526.931274,615.256653 520.430725,615.042480 513.475037,615.100952 
z"/>
<path fill="#063468" opacity="1.000000" stroke="none" 
	d="
M287.573486,615.145630 
	C287.997009,663.454468 287.995605,711.728271 287.999939,760.465942 
	C287.829193,760.977966 287.652679,761.026184 287.156982,760.782288 
	C286.704620,760.234619 286.495667,760.084656 286.210876,760.040344 
	C286.118011,756.060303 285.946106,752.080261 285.944519,748.100159 
	C285.927704,705.738464 285.921692,663.376770 285.991882,621.015137 
	C285.995148,619.046387 286.745911,617.078735 287.573486,615.145630 
z"/>
<path fill="#234D7E" opacity="1.000000" stroke="none" 
	d="
M326.404541,42.843628 
	C326.528107,42.203968 327.089386,41.189522 327.578156,41.223358 
	C341.415253,42.181419 355.249542,43.113407 368.627808,47.308811 
	C373.499908,48.836712 378.730286,49.316994 383.484528,51.106171 
	C393.298676,54.799564 402.936401,58.972923 412.575775,63.113918 
	C416.181061,64.662720 419.689178,66.507240 423.035248,68.554230 
	C424.301575,69.328934 424.986176,71.054573 425.964539,72.707092 
	C395.709106,53.881508 362.064301,45.766068 326.404541,42.843628 
z"/>
<path fill="#214C77" opacity="1.000000" stroke="none" 
	d="
M758.522339,697.062073 
	C761.208069,696.389587 764.354431,695.108459 767.505981,695.095520 
	C802.402222,694.951965 837.299255,694.991821 872.196045,695.048889 
	C873.728394,695.051392 875.259766,695.697388 876.908081,696.423462 
	C859.264038,696.874878 841.503601,696.976868 823.742981,697.010437 
	C802.157166,697.051270 780.571167,697.034363 758.522339,697.062073 
z"/>
<path fill="#234D7E" opacity="1.000000" stroke="none" 
	d="
M144.675644,628.130554 
	C143.465454,630.626099 142.108719,633.355408 140.388962,635.832642 
	C135.313889,643.143188 129.004486,649.826843 125.186081,657.726379 
	C119.333763,669.833557 117.444519,683.067932 119.330086,696.627686 
	C119.563553,698.306641 119.232536,700.064087 118.788879,701.994385 
	C113.411461,674.727112 121.249664,651.272217 140.613922,631.447754 
	C141.757065,630.277405 143.108658,629.310669 144.675644,628.130554 
z"/>
<path fill="#285280" opacity="1.000000" stroke="none" 
	d="
M852.862061,745.345947 
	C853.018250,743.883118 853.055603,741.963806 854.003235,740.762451 
	C857.923706,735.791870 862.231873,731.127441 866.159363,726.162109 
	C867.732849,724.172729 867.450500,721.217896 864.621582,721.278992 
	C858.123352,721.419128 853.897095,716.445496 848.170166,714.930359 
	C844.442627,713.944153 841.680664,713.108337 839.527161,717.465820 
	C838.742554,719.053406 836.257141,719.800537 834.163635,720.877258 
	C834.787842,719.520569 835.820007,718.235413 836.800415,716.911926 
	C842.105042,709.751404 842.102539,709.743713 850.441772,713.300171 
	C856.058533,715.695435 861.657471,718.132996 867.287292,720.497131 
	C869.944824,721.613220 870.729736,723.371765 868.913208,725.673279 
	C863.729309,732.241211 858.421143,738.711121 852.862061,745.345947 
z"/>
<path fill="#063468" opacity="1.000000" stroke="none" 
	d="
M30.777023,760.490845 
	C30.264505,760.965149 29.854479,760.984802 29.201073,760.538635 
	C28.988234,728.385193 29.018774,696.697510 29.049313,665.009827 
	C29.473833,665.023010 29.898352,665.036133 30.639997,665.020081 
	C30.926096,667.037842 30.895067,669.084778 30.643946,671.654175 
	C30.527479,672.454102 30.631105,672.731628 30.734737,673.009155 
	C30.782999,702.018127 30.831257,731.027100 30.777023,760.490845 
z"/>
<path fill="#29507D" opacity="1.000000" stroke="none" 
	d="
M829.726074,615.816650 
	C826.869690,615.740662 823.737488,615.569946 820.662476,615.056519 
	C817.618774,614.548340 814.657288,613.255981 811.616211,613.085999 
	C805.814636,612.761597 799.965271,613.269165 794.167175,612.915100 
	C787.854919,612.529724 782.186401,614.055786 776.612122,616.848511 
	C770.770874,619.774963 764.729431,622.302063 758.386719,624.775024 
	C757.997986,624.546387 758.018799,624.064514 758.018799,624.064514 
	C780.375000,608.927185 804.240479,606.488708 829.726074,615.816650 
z"/>
<path fill="#063468" opacity="1.000000" stroke="none" 
	d="
M121.496796,563.978943 
	C121.944260,564.359619 121.926933,564.740540 121.929779,565.406921 
	C105.548538,565.777039 89.147209,565.893188 72.745689,565.936584 
	C59.816364,565.970764 46.886803,565.915405 33.523163,565.497681 
	C33.059322,564.726074 33.029663,564.356628 33.000000,563.987244 
	C62.344006,563.984558 91.688011,563.981934 121.496796,563.978943 
z"/>
<path fill="#285280" opacity="1.000000" stroke="none" 
	d="
M832.593628,722.012939 
	C833.407715,724.684875 831.936157,725.865417 829.673218,727.605530 
	C816.516785,737.722290 801.939270,739.244812 786.678467,734.782288 
	C779.530273,732.692017 773.159912,728.428345 769.002563,721.360046 
	C775.104553,724.897705 780.776550,729.908508 787.395996,732.490540 
	C802.383179,738.336426 816.430908,735.238708 828.917358,725.137939 
	C830.081787,724.195984 831.174927,723.165894 832.593628,722.012939 
z"/>
<path fill="#214C77" opacity="1.000000" stroke="none" 
	d="
M232.402420,753.098633 
	C234.669357,750.546814 237.565582,748.196411 239.848984,745.353760 
	C244.709396,739.302856 249.783630,733.317627 253.776627,726.705505 
	C257.891815,719.891052 260.826874,712.363892 264.644897,705.092407 
	C263.036194,718.405884 256.578888,729.659851 247.813232,739.533508 
	C243.359375,744.550354 237.808777,748.593567 232.402420,753.098633 
z"/>
<path fill="#285280" opacity="1.000000" stroke="none" 
	d="
M449.303528,456.880371 
	C449.480408,455.302307 449.559265,453.316406 450.531067,451.979645 
	C454.739471,446.190857 459.344513,440.689972 463.540649,434.892853 
	C466.941254,430.194824 469.712738,425.027313 473.271057,420.464050 
	C474.826324,418.469513 477.648865,417.463165 480.257690,416.003052 
	C470.285065,429.589081 459.950745,443.180145 449.303528,456.880371 
z"/>
<path fill="#234D7E" opacity="1.000000" stroke="none" 
	d="
M253.404327,45.296658 
	C253.691971,43.563431 254.380386,41.934521 254.634094,41.334190 
	C260.787201,41.334190 266.135406,41.311256 271.483368,41.338470 
	C287.863251,41.421822 304.243073,41.524429 320.803009,41.936890 
	C301.225800,42.984985 281.467529,43.691135 261.712341,44.475800 
	C259.068542,44.580807 256.440460,45.082813 253.404327,45.296658 
z"/>
<path fill="#285280" opacity="1.000000" stroke="none" 
	d="
M393.059082,465.361694 
	C396.423187,465.076141 400.125122,464.275513 402.300537,468.361481 
	C402.629089,468.978638 404.425079,468.875183 405.554016,468.991119 
	C407.193268,469.159424 409.071625,468.747864 410.451599,469.409912 
	C419.753540,473.872467 427.921204,470.745941 435.997711,466.089661 
	C437.218109,465.386047 438.819702,465.343567 440.639038,465.005737 
	C428.356842,475.380951 414.573822,475.592712 400.148438,469.380615 
	C397.739716,468.343323 395.497162,466.920074 393.059082,465.361694 
z"/>
<path fill="#29507D" opacity="1.000000" stroke="none" 
	d="
M375.992981,616.635620 
	C371.461548,616.242554 366.705658,615.835327 362.101593,614.771057 
	C352.189240,612.479675 342.743652,614.932556 333.273071,617.177673 
	C331.961151,617.488647 331.015747,619.135986 329.700684,619.689758 
	C327.430450,620.645752 325.003265,621.229126 322.293579,621.936401 
	C334.826843,612.221741 349.044312,609.562256 364.597809,613.704285 
	C368.313293,614.693787 372.089203,615.456543 375.992981,616.635620 
z"/>
<path fill="#063468" opacity="1.000000" stroke="none" 
	d="
M30.780001,632.560425 
	C30.290226,632.967407 29.893438,632.986511 29.236258,632.539001 
	C28.979052,612.613159 29.004574,593.153809 28.942833,573.694763 
	C28.937920,572.145935 28.329187,570.599121 28.001060,569.051331 
	C28.460222,568.728516 28.919382,568.405762 29.827839,568.113892 
	C30.277134,568.144836 30.573200,568.070190 30.573200,568.070190 
	C30.669699,570.422424 30.766197,572.774658 30.645256,575.653809 
	C30.530319,576.455811 30.632822,576.730835 30.735331,577.005920 
	C30.780846,592.698792 30.826357,608.391663 30.583843,624.775757 
	C30.443872,626.642090 30.591927,627.817200 30.739983,628.992249 
	C30.784319,630.052368 30.828653,631.112427 30.780001,632.560425 
z"/>
<path fill="#234D7E" opacity="1.000000" stroke="none" 
	d="
M264.361877,17.807682 
	C264.644409,19.889822 264.644409,22.136766 264.644409,23.899227 
	C254.830261,27.755539 252.001526,37.768475 243.819046,43.939953 
	C246.348175,44.702675 247.392258,45.017540 248.676544,45.564423 
	C245.749741,46.375641 242.582718,46.954838 239.415695,47.534035 
	C239.225357,47.211208 239.035034,46.888382 238.844711,46.565556 
	C247.256256,37.034531 255.667801,27.503508 264.361877,17.807682 
z"/>
<path fill="#214C77" opacity="1.000000" stroke="none" 
	d="
M345.509521,642.087646 
	C350.067383,641.756531 355.240448,640.549683 360.035736,641.421326 
	C365.976501,642.501282 371.604095,645.304138 378.127014,647.634277 
	C378.644257,645.065796 379.106659,641.621460 380.066254,638.321777 
	C381.059021,634.908142 382.534393,631.634888 384.203979,628.420410 
	C382.914764,636.040955 381.220184,643.541199 379.347687,651.828979 
	C368.642090,644.994812 357.993164,640.954834 345.509521,642.087646 
z"/>
<path fill="#29507D" opacity="1.000000" stroke="none" 
	d="
M177.107635,124.766907 
	C176.325378,128.160660 175.458359,131.813309 174.254272,135.351227 
	C172.189880,141.416870 171.162308,147.345657 173.321716,153.742020 
	C174.147400,156.187790 173.167786,159.243042 173.004974,162.451141 
	C167.620789,149.564682 168.867615,136.924347 177.107635,124.766907 
z"/>
<path fill="#285280" opacity="1.000000" stroke="none" 
	d="
M30.771088,567.775330 
	C30.573200,568.070190 30.277134,568.144836 30.127129,568.116089 
	C30.470619,561.611755 31.081818,561.018372 37.420734,561.016968 
	C62.164249,561.011475 86.907761,561.014648 111.736137,561.987793 
	C110.152733,561.987793 108.569336,561.987793 106.985931,561.987793 
	C84.214302,561.987793 61.442581,561.960144 38.671234,562.040039 
	C36.840202,562.046448 35.011765,562.792847 33.091057,563.591309 
	C33.029663,564.356628 33.059322,564.726074 33.073555,565.373169 
	C32.361744,566.260681 31.665358,566.870605 30.771088,567.775330 
z"/>
<path fill="#29507D" opacity="1.000000" stroke="none" 
	d="
M862.690430,640.724304 
	C861.427979,640.499268 859.761658,640.290833 858.817200,639.354370 
	C855.046021,635.615234 851.782471,631.319946 847.774353,627.878845 
	C844.893372,625.405396 841.050720,624.084290 837.788330,622.010986 
	C835.781128,620.735474 834.058777,619.011841 832.114990,617.204590 
	C844.339355,621.988098 854.278076,630.156067 862.690430,640.724304 
z"/>
<path fill="#285280" opacity="1.000000" stroke="none" 
	d="
M605.634155,769.021545 
	C601.186829,770.281433 598.409973,768.663879 597.195129,764.092468 
	C596.365845,760.971741 599.160583,756.531433 602.587891,755.732666 
	C603.440735,755.533813 604.469482,755.664917 605.318542,755.944641 
	C610.709045,757.720337 616.071716,759.580200 621.731934,761.962463 
	C622.026855,762.880554 622.033447,763.248535 622.040039,763.616455 
	C616.490662,762.037720 610.972900,760.329468 605.372681,758.958435 
	C603.674072,758.542603 601.747375,759.058472 599.925110,759.147583 
	C600.522827,761.814636 600.866760,764.581360 601.853760,767.095581 
	C602.206421,767.994019 604.115051,768.281616 605.634155,769.021545 
z"/>
<path fill="#29507D" opacity="1.000000" stroke="none" 
	d="
M128.897461,729.452637 
	C130.931183,730.995178 133.046738,732.843567 135.059967,734.797363 
	C139.157761,738.774170 143.248352,742.760864 147.239273,746.843811 
	C148.613220,748.249573 149.681808,749.953735 150.810196,751.908020 
	C141.657043,746.550537 134.480499,738.967896 128.897461,729.452637 
z"/>
<path fill="#214C77" opacity="1.000000" stroke="none" 
	d="
M176.008911,761.017090 
	C184.278534,761.532349 192.548691,762.038879 200.817291,762.570068 
	C202.468735,762.676147 204.114182,762.875671 205.837189,763.392822 
	C195.623138,766.318542 185.382751,765.331726 175.173157,763.071411 
	C175.463058,762.211670 175.735977,761.614380 176.008911,761.017090 
z"/>
<path fill="#285280" opacity="1.000000" stroke="none" 
	d="
M768.930420,720.656372 
	C767.366821,720.184387 764.951904,719.802612 764.213562,718.482910 
	C761.095642,712.909729 758.336487,707.117615 755.814575,701.247314 
	C755.394104,700.268616 756.799927,698.505371 757.726196,697.093323 
	C759.285339,705.934021 763.352051,713.456055 768.930420,720.656372 
z"/>
<path fill="#234D7E" opacity="1.000000" stroke="none" 
	d="
M288.618866,4.386084 
	C286.372375,5.888268 283.750336,7.371392 281.124390,8.847598 
	C275.871216,11.800729 270.615906,14.750075 264.983337,17.726145 
	C270.326508,9.479686 279.144348,6.675183 288.618866,4.386084 
z"/>
<path fill="#234D7E" opacity="1.000000" stroke="none" 
	d="
M118.980331,705.425110 
	C120.504211,707.742554 122.289139,710.354065 123.464676,713.215942 
	C125.496819,718.163269 127.150795,723.266052 128.931976,728.719360 
	C125.589417,721.367310 122.278275,713.599609 118.980331,705.425110 
z"/>
<path fill="#214C77" opacity="1.000000" stroke="none" 
	d="
M209.374329,763.155823 
	C213.253723,760.814880 217.386917,758.312439 221.739868,756.280823 
	C224.769226,754.866943 228.100204,754.099304 231.712769,753.066650 
	C224.660049,756.458618 217.190994,759.826965 209.374329,763.155823 
z"/>
<path fill="#285280" opacity="1.000000" stroke="none" 
	d="
M353.371460,199.948303 
	C353.565460,198.798553 353.709991,196.987854 354.657593,196.324677 
	C359.762817,192.751785 365.067413,189.463806 370.843994,186.107071 
	C371.625549,186.262192 371.798981,186.449966 371.905090,186.699951 
	C365.834259,191.072281 359.763428,195.444626 353.371460,199.948303 
z"/>
<path fill="#29507D" opacity="1.000000" stroke="none" 
	d="
M175.620239,761.004395 
	C175.735977,761.614380 175.463058,762.211670 174.935242,762.846191 
	C166.068680,761.243286 158.145081,757.975159 150.854477,752.565552 
	C156.697815,754.457825 162.675583,756.678833 168.672745,758.846313 
	C170.835052,759.627747 173.043961,760.280334 175.620239,761.004395 
z"/>
<path fill="#285280" opacity="1.000000" stroke="none" 
	d="
M707.458008,868.033447 
	C709.480835,864.408630 711.702942,860.571411 714.196838,856.919922 
	C716.064880,854.184753 718.283020,851.688721 720.704651,849.059998 
	C718.388306,856.558472 714.032288,862.899658 707.458008,868.033447 
z"/>
<path fill="#29507D" opacity="1.000000" stroke="none" 
	d="
M416.174164,128.432770 
	C415.232849,128.522614 413.886597,128.621063 413.197235,127.995552 
	C409.332092,124.488228 405.580566,120.850601 401.910980,117.138123 
	C401.331818,116.552208 401.367706,115.358383 401.203857,114.058723 
	C406.216522,118.483566 411.144531,123.295326 416.174164,128.432770 
z"/>
<path fill="#214C77" opacity="1.000000" stroke="none" 
	d="
M757.687012,624.162781 
	C758.018799,624.064514 757.997986,624.546387 757.999023,624.787842 
	C754.993713,628.224243 752.099243,631.534912 748.946777,634.578430 
	C746.271118,637.161621 743.297668,639.436279 740.075806,641.782654 
	C745.582153,635.898987 751.468689,630.080017 757.687012,624.162781 
z"/>
<path fill="#29507D" opacity="1.000000" stroke="none" 
	d="
M384.402954,177.075500 
	C384.911407,170.703659 391.572296,169.418671 394.802643,165.082794 
	C395.283081,164.437973 395.930603,163.917618 397.135010,163.160538 
	C398.489258,162.963455 399.209320,162.945526 400.012268,163.018845 
	C400.095154,163.110107 400.258148,163.295120 400.258148,163.295105 
	C395.085602,167.862732 389.913086,172.430374 384.402954,177.075500 
z"/>
<path fill="#29507D" opacity="1.000000" stroke="none" 
	d="
M399.988007,161.999481 
	C403.543640,158.218521 406.988281,154.322739 410.716400,150.720276 
	C411.983948,149.495438 413.965851,149.009872 416.007507,148.314575 
	C411.226593,153.312653 406.059540,158.182648 400.575317,163.173889 
	C400.258148,163.295120 400.095154,163.110107 400.034729,162.787415 
	C399.974335,162.464737 399.988007,161.999481 399.988007,161.999481 
z"/>
<path fill="#29507D" opacity="1.000000" stroke="none" 
	d="
M416.720673,148.189880 
	C416.402985,148.231644 416.267029,147.982239 416.320465,147.931259 
	C422.769257,141.778214 417.195435,135.636063 416.238098,129.102325 
	C418.224731,132.387131 420.640503,135.916061 422.259705,139.778870 
	C424.282562,144.604767 418.857330,145.293579 416.720673,148.189880 
z"/>
<path fill="#285280" opacity="1.000000" stroke="none" 
	d="
M692.292419,880.291748 
	C692.159180,879.412781 691.999390,878.000000 692.563660,877.594360 
	C697.106567,874.328491 701.786011,871.252502 706.799988,868.126465 
	C702.317993,872.164429 697.459656,876.194519 692.292419,880.291748 
z"/>
<path fill="#234D7E" opacity="1.000000" stroke="none" 
	d="
M435.498047,80.267166 
	C441.549103,80.785439 447.976868,86.749603 448.914368,92.934341 
	C444.448883,89.082367 440.017883,84.825272 435.498047,80.267166 
z"/>
<path fill="#29507D" opacity="1.000000" stroke="none" 
	d="
M399.957855,112.620804 
	C392.847107,113.865494 389.292267,107.757507 384.128113,104.132462 
	C389.257538,106.656723 394.508331,109.508606 399.957855,112.620804 
z"/>
<path fill="#0E3B6D" opacity="1.000000" stroke="none" 
	d="
M622.477783,763.788086 
	C622.033447,763.248535 622.026855,762.880554 622.006836,762.235596 
	C629.470642,762.111694 636.947937,762.264893 644.721313,762.716064 
	C637.650085,763.329346 630.282837,763.644531 622.477783,763.788086 
z"/>
<path fill="#29507D" opacity="1.000000" stroke="none" 
	d="
M372.231689,186.657501 
	C371.798981,186.449966 371.625549,186.262192 371.201599,186.070999 
	C374.200073,181.730637 377.768890,177.988586 383.759338,177.074249 
	C380.289734,180.281616 376.424011,183.448318 372.231689,186.657501 
z"/>
<path fill="#29507D" opacity="1.000000" stroke="none" 
	d="
M184.500580,113.952133 
	C184.948318,118.862869 183.479385,122.948914 177.778137,124.498428 
	C179.684433,120.920197 181.953903,117.522881 184.500580,113.952133 
z"/>
<path fill="#285280" opacity="1.000000" stroke="none" 
	d="
M186.047073,185.367981 
	C191.666016,185.859756 192.905228,190.269745 193.702621,195.375946 
	C191.132675,192.425873 188.660110,189.054184 186.047073,185.367981 
z"/>
<path fill="#285280" opacity="1.000000" stroke="none" 
	d="
M441.345276,464.963501 
	C441.648682,460.750824 444.014771,458.033081 448.620056,456.996033 
	C446.552521,459.626862 444.115387,462.262756 441.345276,464.963501 
z"/>
<path fill="#285280" opacity="1.000000" stroke="none" 
	d="
M842.992676,750.992249 
	C845.901917,749.086182 848.811157,747.180115 852.088379,745.422546 
	C849.520264,747.943237 846.584045,750.315369 843.318237,752.434448 
	C842.989929,751.785034 842.991272,751.388611 842.992676,750.992249 
z"/>
<path fill="#234D7E" opacity="1.000000" stroke="none" 
	d="
M823.241333,761.997559 
	C822.312866,761.789551 821.800720,761.624573 821.143311,761.220886 
	C824.726746,759.653320 828.455444,758.324463 832.422852,757.242004 
	C831.443237,758.159485 830.224915,758.830566 829.006592,759.501648 
	C829.006592,759.501648 828.927002,759.857971 828.679810,759.951660 
	C828.432617,760.045288 828.169922,760.253906 828.169922,760.253906 
	C826.665833,760.849487 825.161682,761.445068 823.241333,761.997559 
z"/>
<path fill="#285280" opacity="1.000000" stroke="none" 
	d="
M829.367676,759.448975 
	C830.224915,758.830566 831.443237,758.159485 832.829468,757.236755 
	C834.224731,756.617737 835.452087,756.250366 836.986694,756.016174 
	C834.772278,757.231628 832.250549,758.313965 829.367676,759.448975 
z"/>
<path fill="#29507D" opacity="1.000000" stroke="none" 
	d="
M383.045105,619.340820 
	C380.208862,622.284241 378.631226,620.095154 377.040344,617.449707 
	C378.962982,617.776733 380.928986,618.454712 383.045105,619.340820 
z"/>
<path fill="#285280" opacity="1.000000" stroke="none" 
	d="
M481.271362,414.752625 
	C482.123932,412.957581 483.263824,411.004791 484.789124,409.072144 
	C483.969299,410.926483 482.764008,412.760681 481.271362,414.752625 
z"/>
<path fill="#234D7E" opacity="1.000000" stroke="none" 
	d="
M426.563202,73.495468 
	C429.857147,72.589989 431.707581,74.493607 432.926270,77.763885 
	C430.869751,76.689400 428.801636,75.245819 426.563202,73.495468 
z"/>
<path fill="#29507D" opacity="1.000000" stroke="none" 
	d="
M321.575897,621.970337 
	C320.863220,622.941956 319.830292,623.966125 318.408478,624.973999 
	C319.098297,623.979431 320.177002,623.001099 321.575897,621.970337 
z"/>
<path fill="#0E3B6D" opacity="1.000000" stroke="none" 
	d="
M530.446411,761.207031 
	C532.504150,760.880920 534.995911,760.666565 537.757812,760.739258 
	C535.645386,761.123901 533.262939,761.221313 530.446411,761.207031 
z"/>
<path fill="#29507D" opacity="1.000000" stroke="none" 
	d="
M384.884918,624.069641 
	C384.609772,622.918396 384.334656,621.767151 384.039154,620.256653 
	C384.521820,621.447693 385.024811,622.997986 385.250305,624.570007 
	C384.943512,624.417725 384.914215,624.243652 384.884918,624.069641 
z"/>
<path fill="#285280" opacity="1.000000" stroke="none" 
	d="
M838.305786,755.679688 
	C838.000183,755.327637 838.001709,754.952454 838.393188,754.290649 
	C839.545593,754.004333 840.308105,754.004700 841.070618,754.005127 
	C840.251343,754.555603 839.432129,755.106079 838.305786,755.679688 
z"/>
<path fill="#234D7E" opacity="1.000000" stroke="none" 
	d="
M842.633179,751.061401 
	C842.991272,751.388611 842.989929,751.785034 842.991150,752.478516 
	C842.699768,753.013184 842.405884,753.250610 841.827393,753.514893 
	C841.786438,752.738037 842.030029,751.934326 842.633179,751.061401 
z"/>
<path fill="#285280" opacity="1.000000" stroke="none" 
	d="
M30.843760,628.602661 
	C30.591927,627.817200 30.443872,626.642090 30.517384,625.241089 
	C30.808481,626.081116 30.878010,627.147095 30.843760,628.602661 
z"/>
<path fill="#214C77" opacity="1.000000" stroke="none" 
	d="
M384.621460,624.325806 
	C384.914215,624.243652 384.943512,624.417725 385.011108,624.853638 
	C384.997833,625.999695 384.946320,626.883850 384.682129,628.018677 
	C384.432251,627.040222 384.395111,625.811096 384.621460,624.325806 
z"/>
<path fill="#234D7E" opacity="1.000000" stroke="none" 
	d="
M841.223877,753.944336 
	C840.308105,754.004700 839.545593,754.004333 838.402527,754.009277 
	C838.930603,753.755432 839.839172,753.496216 841.109253,753.402100 
	C841.470703,753.567261 841.377136,753.883484 841.223877,753.944336 
z"/>
<path fill="#234D7E" opacity="1.000000" stroke="none" 
	d="
M146.699951,626.429565 
	C146.684265,626.695496 146.460220,626.843994 146.056122,626.943359 
	C145.945374,626.629700 146.150558,626.435669 146.699951,626.429565 
z"/>
<path fill="#234D7E" opacity="1.000000" stroke="none" 
	d="
M433.883972,79.183228 
	C434.140686,79.046097 434.402222,79.134895 434.737000,79.384354 
	C434.833771,79.479378 434.363312,79.542892 434.363312,79.542892 
	C434.363312,79.542892 433.912384,79.343544 433.883972,79.183228 
z"/>
<path fill="#1A4F8B" opacity="1.000000" stroke="none" 
	d="
M286.133911,760.294250 
	C286.495667,760.084656 286.704620,760.234619 286.903137,760.677979 
	C286.664673,760.759888 286.360809,760.653992 286.133911,760.294250 
z"/>
<path fill="#285280" opacity="1.000000" stroke="none" 
	d="
M30.820679,576.755615 
	C30.632822,576.730835 30.530319,576.455811 30.580280,576.093140 
	C30.790506,576.172119 30.848267,576.338684 30.820679,576.755615 
z"/>
<path fill="#285280" opacity="1.000000" stroke="none" 
	d="
M828.278198,760.284668 
	C828.169922,760.253906 828.432617,760.045288 828.503418,759.998657 
	C828.574280,759.951965 828.386414,760.315430 828.278198,760.284668 
z"/>
<path fill="#29507D" opacity="1.000000" stroke="none" 
	d="
M401.219788,113.487274 
	C400.980896,113.630501 400.637970,113.501152 400.180908,113.109955 
	C400.416412,112.970299 400.766083,113.092491 401.219788,113.487274 
z"/>
<path fill="#285280" opacity="1.000000" stroke="none" 
	d="
M833.588501,720.844727 
	C833.703918,721.095154 833.535828,721.411804 833.109375,721.828369 
	C833.002319,721.589172 833.153687,721.250061 833.588501,720.844727 
z"/>
<path fill="#285280" opacity="1.000000" stroke="none" 
	d="
M30.821262,672.756348 
	C30.631105,672.731628 30.527479,672.454102 30.577618,672.087769 
	C30.790188,672.167236 30.848988,672.335388 30.821262,672.756348 
z"/>
<path fill="#F4F9FA" opacity="1.000000" stroke="none" 
	d="
M764.148560,669.179321 
	C762.179626,668.648010 760.321777,668.715454 762.143921,665.452087 
	C770.712708,650.105957 783.047729,640.598389 801.047058,640.445068 
	C818.555298,640.295898 831.277405,649.011963 840.154724,663.701355 
	C841.020691,665.134399 841.085510,667.051697 841.018799,668.854736 
	C817.005127,668.998596 793.494812,669.031982 769.684937,668.953064 
	C769.010681,669.009583 768.635925,669.178406 767.939819,669.204712 
	C766.461792,669.101257 765.305176,669.140320 764.148560,669.179321 
z"/>
<path fill="#0E3B6D" opacity="1.000000" stroke="none" 
	d="
M769.984497,669.065308 
	C793.494812,669.031982 817.005127,668.998596 840.806335,669.130615 
	C841.862854,669.590149 842.628418,669.884338 843.394043,670.178528 
	C843.079590,670.451538 842.765137,670.724548 842.450684,670.997559 
	C819.672607,670.997559 796.894226,671.047913 774.116638,670.941284 
	C770.841125,670.925903 767.239563,673.220093 764.210938,669.559448 
	C765.305176,669.140320 766.461792,669.101257 768.240356,669.365723 
	C769.236389,669.467896 769.610474,669.266602 769.984497,669.065308 
z"/>
<path fill="#014583" opacity="1.000000" stroke="none" 
	d="
M28.112495,760.955322 
	C27.803652,761.092529 27.494810,761.229736 27.069330,761.196289 
	C26.970930,731.028320 26.982460,701.031067 27.023966,671.033813 
	C27.026474,669.221436 27.267580,667.409363 27.692369,665.770081 
	C28.028881,697.613770 28.070688,729.284546 28.112495,760.955322 
z"/>
<path fill="#22629F" opacity="1.000000" stroke="none" 
	d="
M28.291416,760.966675 
	C28.070688,729.284546 28.028881,697.613770 27.987114,665.475159 
	C28.164021,665.006348 28.340889,665.005310 28.783535,665.007019 
	C29.018774,696.697510 28.988234,728.385193 28.892792,760.538879 
	C28.827890,761.004883 28.470335,760.978027 28.291416,760.966675 
z"/>
<path fill="#22629F" opacity="1.000000" stroke="none" 
	d="
M28.002443,569.293884 
	C28.329187,570.599121 28.937920,572.145935 28.942833,573.694763 
	C29.004574,593.153809 28.979052,612.613159 28.937828,632.541077 
	C28.899796,633.009766 28.469604,632.996826 28.254894,632.995972 
	C28.040182,632.995117 28.015104,632.997620 28.004230,632.528687 
	C27.992500,611.380249 27.991642,590.700806 27.990782,570.021362 
	C27.990782,570.021362 28.003824,569.536438 28.002443,569.293884 
z"/>
<path fill="#014583" opacity="1.000000" stroke="none" 
	d="
M27.693932,570.311890 
	C27.991642,590.700806 27.992500,611.380249 28.000778,632.527954 
	C27.674744,631.773499 27.054611,630.551758 27.050756,629.328064 
	C26.991123,610.396423 27.007698,591.464600 27.029442,572.532776 
	C27.030182,571.889221 27.269154,571.245911 27.693932,570.311890 
z"/>
<path fill="#285280" opacity="1.000000" stroke="none" 
	d="
M399.704590,161.882690 
	C399.988007,161.999481 399.974335,162.464737 399.951874,162.696167 
	C399.209320,162.945526 398.489258,162.963455 397.410522,162.962112 
	C397.841675,162.550522 398.631439,162.158218 399.704590,161.882690 
z"/>
<path fill="#FCFDFE" opacity="1.000000" stroke="none" 
	d="
M595.334534,712.559570 
	C584.803467,693.155151 585.366821,674.433228 598.556152,657.098145 
	C616.625488,633.349060 650.184387,633.814636 668.878296,657.542297 
	C689.446777,683.649231 676.430298,724.071289 644.576172,733.011353 
	C626.467529,738.093689 606.984558,730.088745 595.334534,712.559570 
z"/>
<path fill="#FBFDFD" opacity="1.000000" stroke="none" 
	d="
M664.966370,803.026733 
	C671.035706,805.104675 677.456604,806.497925 683.103882,809.397766 
	C696.396667,816.223572 699.005127,830.785583 689.799377,842.660645 
	C681.322144,853.596069 669.449890,858.803284 656.532593,861.027161 
	C637.833252,864.246582 619.165771,863.291504 602.232239,853.619080 
	C596.965210,850.610657 592.143677,845.817078 588.764587,840.744080 
	C583.669250,833.094482 584.844543,824.669067 590.460449,817.483337 
	C594.195740,812.703979 598.820374,808.619690 603.473755,803.795654 
	C604.814697,802.647217 605.728821,801.927429 606.642944,801.207642 
	C606.642944,801.207642 606.858582,801.234619 607.362000,801.150330 
	C625.907410,801.647339 643.949463,802.228699 661.991455,802.810059 
	C662.444580,802.900452 662.897644,802.990784 663.917847,803.099976 
	C664.484863,803.118835 664.966370,803.026733 664.966370,803.026733 
z"/>
<path fill="#29507D" opacity="1.000000" stroke="none" 
	d="
M661.885071,802.429260 
	C643.949463,802.228699 625.907410,801.647339 607.427124,801.063354 
	C611.676758,800.710999 616.368286,800.025513 621.051697,800.077393 
	C632.937622,800.208862 644.821045,800.634827 656.702148,801.040710 
	C658.403809,801.098877 660.086975,801.699097 661.885071,802.429260 
z"/>
<path fill="#29507D" opacity="1.000000" stroke="none" 
	d="
M606.200378,801.154663 
	C605.728821,801.927429 604.814697,802.647217 603.561890,803.487610 
	C604.068054,802.772705 604.912964,801.937195 606.200378,801.154663 
z"/>
<path fill="#29507D" opacity="1.000000" stroke="none" 
	d="
M664.900146,802.855652 
	C664.966370,803.026733 664.484863,803.118835 664.258911,803.024536 
	C664.299927,802.848389 664.566895,802.766479 664.900146,802.855652 
z"/>
<path fill="#FCFDFE" opacity="1.000000" stroke="none" 
	d="
M425.675171,710.140259 
	C418.366425,693.928833 418.783875,678.397278 427.260345,662.992859 
	C440.200775,639.476135 472.555267,633.427002 493.421631,650.545654 
	C515.425842,668.597900 516.488586,701.034546 498.290436,720.711243 
	C476.512421,744.258667 441.280121,738.539124 425.675171,710.140259 
z"/>
<path fill="#FCFDFE" opacity="1.000000" stroke="none" 
	d="
M146.803101,688.027100 
	C146.472946,667.593079 160.198410,648.215027 179.019791,642.396423 
	C200.388351,635.790344 222.333725,646.048645 232.499069,666.869995 
	C245.922806,694.365540 230.704666,727.717468 200.879578,734.374390 
	C180.721985,738.873474 160.869919,729.082886 151.289734,708.157654 
	C148.550964,702.175659 148.233261,695.085327 146.803101,688.027100 
z"/>
<path fill="#194E8B" opacity="1.000000" stroke="none" 
	d="
M769.684937,668.953003 
	C769.610474,669.266602 769.236389,669.467896 768.561768,669.508179 
	C768.635925,669.178406 769.010681,669.009583 769.684937,668.953003 
z"/>
</svg>
