<?xml version="1.0" standalone="no"?>
<!DOCTYPE svg PUBLIC "-//W3C//DTD SVG 20010904//EN"
 "http://www.w3.org/TR/2001/REC-SVG-20010904/DTD/svg10.dtd">
<svg version="1.0" xmlns="http://www.w3.org/2000/svg"
 width="32.000000pt" height="32.000000pt" viewBox="0 0 32.000000 32.000000"
 preserveAspectRatio="xMidYMid meet">

<g transform="translate(0.000000,32.000000) scale(0.100000,-0.100000)"
fill="#000000" stroke="none">
<path d="M76 291 c-3 -5 3 -7 15 -4 12 4 25 0 30 -8 7 -12 9 -12 9 0 0 11 4 9
14 -5 13 -17 12 -21 -1 -36 -9 -10 -26 -18 -39 -18 -12 0 -29 -3 -37 -6 -13
-5 -13 -8 4 -25 11 -11 16 -25 12 -36 -5 -14 -3 -15 6 -7 10 9 10 17 2 32 -15
27 -14 32 5 32 11 0 14 -5 9 -17 -3 -10 9 0 28 21 l33 39 23 -36 c23 -38 35
-48 25 -22 -4 9 0 15 10 15 17 0 22 -25 7 -34 -15 -10 -19 -43 -5 -43 8 0 13
5 12 11 -3 16 12 56 21 56 5 0 20 -11 35 -25 14 -13 26 -21 26 -17 -1 13 -31
47 -42 47 -7 0 -15 11 -19 25 -6 22 -7 22 -8 4 -1 -18 -6 -20 -28 -16 -16 3
-33 12 -40 21 -10 13 -9 19 8 34 12 9 18 17 13 17 -4 0 -15 -7 -25 -16 -16
-14 -18 -14 -27 3 -11 20 -66 30 -76 14z"/>
<path d="M238 282 c9 -10 19 -17 21 -16 6 5 -20 34 -30 34 -5 0 -1 -8 9 -18z"/>
<path d="M62 250 c0 -14 2 -19 5 -12 2 6 2 18 0 25 -3 6 -5 1 -5 -13z"/>
<path d="M15 180 c-10 -11 -16 -22 -14 -24 2 -2 12 7 22 20 22 29 17 32 -8 4z"/>
<path d="M140 175 c-7 -8 -10 -22 -6 -30 7 -19 45 -19 52 0 6 15 -11 45 -26
45 -4 0 -13 -7 -20 -15z m38 -18 c2 -12 -3 -17 -17 -17 -12 0 -21 6 -21 13 0
31 32 34 38 4z"/>
<path d="M24 126 c11 -9 24 -16 28 -16 5 0 5 -12 2 -26 -5 -20 -3 -25 7 -22 8
3 13 12 11 22 -4 23 40 21 62 -3 16 -18 16 -20 -6 -35 -27 -19 -54 -21 -61 -3
-4 9 -6 9 -6 -1 -2 -22 30 -26 65 -7 29 15 36 16 51 4 16 -13 17 -12 5 3 -20
26 1 58 38 58 17 0 30 4 30 8 0 11 -49 7 -61 -5 -7 -7 -19 -9 -28 -6 -14 4
-14 3 -1 -6 8 -5 11 -14 6 -18 -4 -4 -16 4 -27 19 -13 18 -25 24 -39 21 -11
-3 -20 0 -20 6 0 5 -6 8 -14 5 -8 -3 -25 0 -38 6 -22 11 -22 10 -4 -4z"/>
<path d="M280 125 c-14 -8 -20 -14 -14 -15 5 0 19 7 30 15 24 18 16 19 -16 0z"/>
<path d="M251 64 c0 -11 3 -14 6 -6 3 7 2 16 -1 19 -3 4 -6 -2 -5 -13z"/>
<path d="M235 30 c-3 -5 -1 -10 4 -10 6 0 11 5 11 10 0 6 -2 10 -4 10 -3 0 -8
-4 -11 -10z"/>
</g>
</svg>
