<svg id="Layer_1" data-name="Layer 1" xmlns="http://www.w3.org/2000/svg" viewBox="0 0 280 300"><defs><style>.cls-1{fill:#009d9c;}.cls-2{fill:#2f489b;}.cls-3{fill:#fff;}</style></defs><title>Ipsos logo</title><path class="cls-1" d="M55.5,227.12V72.88H220.79c7.44,51.44,4.52,100.25-16.52,154.24H55.5"/><path class="cls-2" d="M122.57,131.17l-.7.59a3,3,0,0,0,3.55-1.42l.07-1a4.35,4.35,0,0,0-2.92,1.81"/><path class="cls-2" d="M130.91,136l-1.21-.07a2.78,2.78,0,0,0,1.47,2.62l.91.2c1.24-1.06-.42-2.14-1.17-2.75"/><path class="cls-2" d="M118.72,110.85l-.9.64a3.18,3.18,0,0,0,4-1.64l.29-1.21c-1.46.33-2.59.32-3.41,2.21"/><path class="cls-2" d="M118.82,116.93l-.28-1a4.28,4.28,0,0,0-3.14,2v.78c1.84.66,2.82-1,3.42-1.78"/><path class="cls-2" d="M114.27,125.91l.6.36c2,.66,2.16-1,2.65-1.63l.78-.68a4.08,4.08,0,0,0-4,2"/><path class="cls-2" d="M126.17,97.29l-.73.35c.2,1.28,3.12,2.72,3.85,1.69l.11-1.22a4.42,4.42,0,0,0-3.23-.82"/><path class="cls-2" d="M136.31,94l-1.13-.34a2.53,2.53,0,0,0-.28,3l.58,1.17c1.33-1.3,2.64-2.52.83-3.81"/><path class="cls-2" d="M164,120.91c-2.43.55-6.09-1.11-5.62-1.43,1.24-.84,4.06-2.3,6.78-1.32.47.16.66.62.71,1.21.12,1.39-1,1.42-1.87,1.54m8.38,1.47c-1.26-1.69-3.66-4-1.67-6.24a3.11,3.11,0,0,0,1.47-2.49,18.19,18.19,0,0,0-.31-7.55c.09-.18.49.05.63-.63.4-1.83-.63-2.19-.63-2.19.78-.68.71-3.23-.53-3.2.68-1.12.09-2.92-1.12-2.53a1.14,1.14,0,0,0,.53-1.13c-.16-1.62-2.48,0-1.88-1.11.32-.56-1-2.47-1.65-1-.39-.26.28-1.19-.43-1.48a3.88,3.88,0,0,0-1.38.64c-.16-.61.48-.94-.3-1.8-1.06-.74-1.14.35-1.87.76-1.36-.31,1.85-1.11-1-2.33-.73,1.77-.67.46-1,.22s-.64.32-1.45,1.15c.42-1.17,1.39-2.6,0-2.19-1.62.73-.68-.22-.69-.34,1.4-.63-1.3-2.14-1.19-.55,0,1.08-2.37,2-1.71.7.44-1.64,2.45.87.72-2.06a18.36,18.36,0,0,0-2.14,2.49c-.84,3.36-.38.29-1.25.24,1.16-.77,2.66-2.16,2.22-3.06-1.26-.09-4.17,2-2.33,2.14-.14.66-1.21,1.43-1.82.29,1-.27,2.78-3.69.59-2.67-.21.21-.21.81-.6,1.39-.52-.47-.1-1.19-.28-1.49-1.74-1.6-1.14,2.58-1.07,3.5-2.28-1.41-.14-1-.73-3.35-1.89.34-2.4,1.14-2.08,3.25-.26.51-.73,1.68-1.05.25,1-1.34.93-3.26-.86-3.32a298.51,298.51,0,0,1-1.44,79l-.22,1.4c2.07,0,5.07-.65,7.23-.75,6.24.2,6.11,1,16.43.88,2.37-.23,3-.62,3.81-.59-.76-3.19-6-1.38-8.61-2.3-4.49-.43-5.26-3.12-6.68-5.11a8.32,8.32,0,0,1-1.56-4.35c-.34-2.4.12-3.67.07-6,.21-1.73,2.17-1.38,3.39-1.23a47.47,47.47,0,0,0,12.13-.76c2.45-.75,2.51-2.27.85-4.53a3.27,3.27,0,0,1,.21-2.82c.67-.76,1.55-1.27.89-2.2,0,0-5.63-1.19-1.75-1.84s2.65-2.29,2.65-2.29-.65-1.63-1.26-2.85c-.45-.9,3.3-1.18,3.71-2.61C176.18,126.46,173.33,123.75,172.34,122.38Z"/><path class="cls-2" d="M143.77,167.05a295.1,295.1,0,0,1-16.61,60.07H55.5V72.88h88.18c.73,5.08,1.22,8.8,1.74,13.83,0,0-1.51.47-1.36,1.7s.75,1.68.75,1.68l-.66.32s-.72-1.06-.73-1c0-1,.44-2.6-1.94-2-.83,1.82,1.31,2.21.75,3.45-2.52.15-.75-1.9-2.76-.75.13-.59-.29-2.15-.92-2-.28.88-1,2.35,0,3.25a1.46,1.46,0,0,1-1.46-.26c-.3-.44.67-1.2-.11-2.56-2.33,1-.17,3.26-2.09,4.11-2.12-.27,1.22-2.07-.47-3.62a2.49,2.49,0,0,0-1.85,3.58c-.05,1-.85,1.55-1,2.45-1-.15-1.35-.5-1.46-.86-.12-.65,1.73-1,.49-2.45-2,.32-.68,3.57-2.29,1.82-.17-.75-.68-1.43-1.07-1.51a1.58,1.58,0,0,0-.64,2.17l.82,1.07c-.11,0,.34.59.24.56-1.34-1.07-3.12-1.81-4.25-.61.14,1.12,1.11,1.19,2.64,1.53a4.66,4.66,0,0,0-2.92,1.24c-.23-1.27-1.73-1.47-3.13-1.68-.77.2-1.29-.35-1.65-.08a5,5,0,0,0,3.72,2.9,2.84,2.84,0,0,0,1.41-.36c1,.48.91.64,1.18,1.36-1.5.68-2.71-.2-4.22.19,0,0-.39.06-.41,0s-.18-.36-.15-.38c-.65-1.24-2.4-.76-3.33-.49-.13,1,.88,1.8,1.7,2.14,1.12.4,1.49.07,1.49.07l.46-.41c.49,1.77,1.12,1.86,2.07,2.58a5.07,5.07,0,0,1-2.74.59c-1.47-2.27-5.89-3.27-5.72-2.2.63,2.36,3.89,2.92,3.89,2.92s-1.71.63-1.41,1.18,2.52.9,2.21,1.76c-2.34-1-2.79-.61-1.2,1.43-2,.1-1.52-2-2.76-2.5-.9.65-.37,2-.37,2-.45-.36-1.63-2.34-2.6-2.09-.31.24-.31,1.31.46,2-1,.21-2.46.08-2.69,1.1,1.53,1.17,3.16,1.16,5.56.86a3.52,3.52,0,0,0,.9-.16c.46-.15,1.14.49,1.14.49-1.18.26-.68.65-3,1.12-1.53.73-2.73,1.68-2.73,3.21,1,.46,2.1.91,2.73,0,1-1.47.75-.29,1.46-.36l.79.25c-.65,1.58-4.22,1.56-3.51,2.69a16.25,16.25,0,0,0,1.77,2.24s-2.52-1.27-3.23-.37.82,2.22,3.47,2.81c-.91.55-4.08,0-2.16,2-2.28,1-1.54,1.65.31,1.16l.87.1c-.54.38-2.17,1.13-2,1.71.1.78,2-.19,2.24.39.13.84-.89,1.21-1,1.45,1.31.83,2.07-1.17,3.25,0-.45.86-2.35.69-1.94,2,.72.55,1.89.31,2.62.83,0,0-1,1.85-.47,2.1,1,.51,2-1.14,2.38-1.24-.26,2.14,1.54,1.42,1,2.86,0,.78-.07,1.85.73,2.26,1.65-.51,1.81-1.81,1.77-3.76,0-.68,1.91.44,1.91.44,1.16.94-2,1.66-1,3.65,2.66.37,2.66-1.9,4.83-2.32,1,.66-.41,1.73-.72,2.49-1.36.76-3-.16-4.3,2.47a3.31,3.31,0,0,0,3.36-.2c.59-.42.52-.63,1-.8,0,.73-.14,2,.56,2.34.61,0,.65-.27,1.17-.61.53.56-.86,1.92,0,2.5a1.38,1.38,0,0,0,1-.83,1.18,1.18,0,0,0,1.48.47c.27-.66.33-2.18-.53-2.72.41-.48,1.41.43,1.85.09.81,1-1,2.92.34,3.72,1.31-.12,1.25-1.43,2.56-2-.23,1.34,1.32,2.32-.67,3.32,0,1.31,2.44.92,1.26,2.81.46.76,1.07.43,1.61.3l1.16-1.32a8.48,8.48,0,0,0-.11,4c-.41,1,.55,2.14-1.27,3-.49,2.49-.49,5-3.39,6.59-1.62,3.07-11.89,1.45-14.15,4.48.54.55,5.8.38,6.47.17,1-.48,1.77.38,2.81.35,2.3,0,5.06-.76,6.95,0,2.68,0,4.94.06,7.36.07v0"/><path class="cls-3" d="M162.19,202.17c8.55,0,14.25-6.3,14.25-14,0-8.16-5.76-13.73-14.25-13.73s-14.35,5.42-14.35,13.73c0,8.16,5.92,14,14.35,14m-7.09-14c0-4.87,2.31-8.1,7.09-8.1s7,3,7,8.1c0,4.77-2.26,8.41-7,8.41C157.68,196.53,155.1,192.94,155.1,188.12Z"/><path class="cls-3" d="M197.06,180.11a31.54,31.54,0,0,0-4.79-.61c-2.83,0-4.81.66-4.81,2.05,0,1.59,2.67,2.88,5.67,4.47,2.85,1.54,6.78,3.59,6.78,8.21,0,5.07-4.52,7.94-11.38,7.94a33.35,33.35,0,0,1-7.85-1.18v-5.63a29,29,0,0,0,8.12,1.69c1.92,0,3.85-.87,3.85-2.61s-2.3-2.57-5.62-4.42c-3-1.49-6.83-4.57-6.83-8.47,0-4.61,4.63-7.16,10.84-7.16a50,50,0,0,1,6,.44v5.28"/><path class="cls-3" d="M77.25,201.28c.16-3,.27-5.29.27-9.44V177.58a63.42,63.42,0,0,0-1.08-12.83h9.42c0,2.62-.27,6.26-.27,10.37v13.33a108.41,108.41,0,0,0,1.08,12.83H77.25"/><path class="cls-3" d="M101.31,212.47a77.08,77.08,0,0,1-.54-9.79v-3.07a14.22,14.22,0,0,0,8.35,2.56c7.38,0,12.38-5.64,12.38-13.38,0-8.42-5.16-14.4-12.7-14.4-5.23,0-7.38,2.5-9.1,4.4-.38-1.38-.54-2.56-1-3.74l-6.84.52a69.17,69.17,0,0,1,1.62,13.29v10.75c0,3.79-.81,10.91-1.08,13.37l8.88-.51m-1.08-23.61c0-5.25,2.21-8.84,6.79-8.84,4.26,0,7.22,3.64,7.22,8.82,0,4.62-2.32,7.69-6.89,7.69S100.23,193.93,100.23,188.86Z"/><path class="cls-3" d="M141.35,180a24.24,24.24,0,0,0-4.21-.53c-2.83,0-4.81.66-4.81,2.05,0,1.59,2.68,2.88,5.67,4.47s6.78,3.59,6.78,8.21c0,5.07-4.52,7.94-11.38,7.94a33.18,33.18,0,0,1-7.84-1.18v-5.63a28.87,28.87,0,0,0,8.11,1.69c1.92,0,3.85-.87,3.85-2.61s-2.3-2.57-5.62-4.42c-3-1.49-6.83-4.57-6.83-8.47,0-4.61,4.63-7.16,10.84-7.16a58,58,0,0,1,6.48.53l-1,5.11"/></svg>