<?xml version="1.0" encoding="utf-8"?>
<!-- Generator: Adobe Illustrator 19.2.1, SVG Export Plug-In . SVG Version: 6.00 Build 0)  -->
<svg version="1.1" id="layer" xmlns="http://www.w3.org/2000/svg" xmlns:xlink="http://www.w3.org/1999/xlink" x="0px" y="0px"
	 viewBox="0 0 652 652" style="enable-background:new 0 0 652 652;" xml:space="preserve">
<style type="text/css">
	.st0{fill:#00A1A1;}
	.st1{fill:#FFFFFF;}
	.st2{fill:#2C4197;}
</style>
<path class="st0" d="M565.5,333.3c-1.6,0-3.2-0.1-5-0.1c-1.3-0.5-3.1,0-4.7,0c-0.7,0-1.2-0.6-1.9-0.2c-0.5,0.1-4,0.3-4.4-0.1
	c1.5-2.1,8.5-1,9.6-3.1c2-1.1,2-2.9,2.3-4.6c1.2-0.6,0.6-1.4,0.9-2.1c-0.2-0.9-0.1-2,0.1-2.8l-0.8,0.9c-0.4,0.1-0.8,0.3-1.1-0.2
	c0.8-1.3-0.9-1-0.9-2c1.3-0.7,0.3-1.4,0.4-2.3c-0.9,0.4-0.8,1.3-1.7,1.4c-0.9-0.6,0.3-1.9-0.2-2.6c-0.3,0.2-1-0.4-1.2-0.1
	c0.6,0.4,0.5,1.4,0.4,1.9c-0.3,0.1-0.7,0.1-1-0.3c0,0-0.2,0.5-0.7,0.6c-0.6-0.4,0.4-1.3,0-1.7c-0.3,0.2-0.4,0.4-0.8,0.4
	c-0.5-0.2-0.3-1.1-0.4-1.6c-0.3,0.1-0.3,0.3-0.7,0.6c-0.4,0.2-1,0.7-2.3,0.1c0.9-1.8,2-1.2,2.9-1.7c0.2-0.5,1.1-1.3,0.5-1.7
	c-1.5,0.3-1.5,1.9-3.3,1.6c-0.6-1.4,1.5-1.9,0.7-2.5c0,0-1.3-0.8-1.3-0.3c0,1.4-0.1,2.3-1.2,2.6c-0.5-0.3-0.5-1-0.5-1.6
	c0.4-1-0.9-0.5-0.7-2c-0.2,0.1-0.9,1.2-1.6,0.9c-0.3-0.2,0.3-1.5,0.3-1.5c-0.5-0.4-1.3-0.2-1.8-0.6c-0.3-0.9,1-0.8,1.3-1.4
	c-0.8-0.8-1.3,0.6-2.2,0c0.1-0.2,0.8-0.4,0.7-1c-0.2-0.4-1.4,0.3-1.5-0.3c-0.1-0.4,1-0.9,1.4-1.2l-0.6-0.1c-1.2,0.3-1.7-0.1-0.2-0.8
	c-1.3-1.4,0.8-1,1.5-1.4c-1.8-0.4-2.8-1.4-2.3-2c0.5-0.6,2.2,0.3,2.2,0.3s-0.7-0.8-1.2-1.6c-0.5-0.8,1.9-0.8,2.4-1.9l-0.5-0.2
	c-0.5,0-0.3-0.8-1,0.2c-0.4,0.6-1.2,0.3-1.8,0c0-1.1,0.8-1.7,1.8-2.2c1.6-0.3,1.2-0.6,2-0.8c0,0-0.5-0.4-0.8-0.3
	c-0.3,0.1-0.6,0.1-0.6,0.1c-1.6,0.2-2.7,0.2-3.8-0.6c0.2-0.7,1.2-0.6,1.8-0.8c-0.5-0.5-0.5-1.2-0.3-1.4c0.7-0.2,1.5,1.2,1.8,1.5
	c0,0-0.4-1,0.2-1.4c0.8,0.3,0.5,1.8,1.9,1.7c-1.1-1.4-0.8-1.7,0.8-1c0.2-0.6-1.3-0.8-1.5-1.2c-0.2-0.4,1-0.8,1-0.8s-2.2-0.4-2.6-2
	c-0.1-0.7,2.9-0.1,3.9,1.5c0.9,0.1,1.1-0.1,1.8-0.4c-0.6-0.5-1.1-0.6-1.4-1.8l-0.3,0.3c0,0-0.2,0.2-1-0.1c-0.6-0.2-1.2-0.8-1.2-1.5
	c0.6-0.2,1.8-0.5,2.2,0.3c0,0,0.1,0.3,0.1,0.3c0,0.1,0.3,0.1,0.3,0c1-0.3,1.8,0.3,2.9-0.1c-0.2-0.5-0.1-0.6-0.8-1
	c-0.4,0.2-0.4,0.2-1,0.3c-1.2-0.2-2.1-1-2.5-2c0.2-0.2,0.6,0.2,1.1,0.1c0.9,0.1,2,0.3,2.1,1.2c0.4-0.3,0.7-0.7,2-0.9
	c-1-0.2-1.7-0.3-1.8-1.1c0.8-0.8,2-0.3,2.9,0.4c0.1,0-0.2-0.4-0.2-0.4l-0.5-0.7c-0.3-0.5-0.1-1.1,0.4-1.5c0.3,0.1,0.6,0.5,0.7,1.1
	c1.1,1.2,0.2-1,1.5-1.3c0.8,1-0.4,1.3-0.3,1.7c0.1,0.3,0.3,0.5,1,0.6c0.1-0.6,0.6-1,0.7-1.7c-0.5-0.8,0-2.2,1.3-2.5
	c1.1,1.1-1.1,2.3,0.3,2.5c1.3-0.6-0.2-2.2,1.4-2.9c0.5,0.9-0.1,1.5,0.1,1.8c0.1,0.2,0.8,0.3,1,0.2c-0.7-0.6-0.2-1.6,0-2.3
	c0.4-0.1,0.7,1,0.6,1.4c1.4-0.8,0.2,0.6,1.9,0.5c0.4-0.9-1.1-1.1-0.5-2.4c1.6-0.4,1.3,0.7,1.3,1.4c0,0,0.5,0.7,0.5,0.7l0.4-0.2
	c0,0-0.4-0.2-0.5-1.2c-0.1-0.9,0.9-1.2,0.9-1.2l0,0c1.9,18.3,1.8,36.8-1,54.9L565.5,333.3z"/>
<path class="st1" d="M551.1,308.8l-0.5,0.6c1.1,0.5,2.2-0.5,2.5-1.4l0.1-1C552.3,307.3,551.5,307.9,551.1,308.8"/>
<path class="st1" d="M557,311.6l-1.1-0.1c0,1,0.3,1.7,1.3,2.3l0.8,0.2C559.2,313.1,557.7,312.2,557,311.6"/>
<path class="st1" d="M548.5,294.4l-0.6,0.5c1.2,0.5,2.3-0.3,2.7-1.4l0.2-1C549.8,292.9,549.1,292.9,548.5,294.4"/>
<path class="st1" d="M548.8,298.6l-0.2-0.9c-1.1,0.3-1.9,0.7-2.3,1.7v0.7C547.6,300.7,548.4,299.2,548.8,298.6"/>
<path class="st1" d="M545.5,305.2l0.4,0.4c1.4,0.7,1.5-1,1.8-1.6l0.5-0.7C547,302.9,545.8,304.3,545.5,305.2"/>
<path class="st1" d="M560.9,282.4l-1.1-0.2c-0.6,0.6-0.9,1-0.3,2.1l0.6,0.8C561.4,284.2,562.6,283.3,560.9,282.4"/>
<path class="st0" d="M579.1,301.5c-1.6,0.4-4.1-0.9-3.8-1.1c0.8-0.7,2.7-1.8,4.6-1c0.3,0.1,0.4,0.5,0.5,1
	C580.5,301.3,579.7,301.4,579.1,301.5"/>
<path class="st1" d="M553.6,284.7l-0.5,0.4c0.1,1.3,2.1,2.8,2.6,1.8l0.1-1.3C555.1,284.9,554.4,284.6,553.6,284.7"/>
<path class="st0" d="M617.6,267.7h-52.2c0.5,3.5,0.8,6.1,1.2,9.6l0,0c1.2,0,1.3,1.4,0.6,2.3c0.2,1,0.5,0.2,0.7-0.2
	c-0.2-1.5,0.1-2,1.4-2.3c0.4,1.6-1,1.4,0.5,2.3c0-0.6-0.5-3.5,0.7-2.4c0.1,0.2-0.2,0.7,0.2,1c0.3-0.4,0.3-0.8,0.4-1
	c1.5-0.7,0.3,1.7-0.4,1.9c0.4,0.8,1.1,0.3,1.2-0.2c-1.2-0.1,0.7-1.6,1.6-1.5c0.3,0.6-0.7,1.6-1.5,2.1c0.6,0,0.3,2.2,0.9-0.2
	c0.1-0.3,0.7-0.9,1.4-1.7c1.2,2-0.2,0.3-0.5,1.4c-0.4,0.9,1.1,0.3,1.2-0.5c-0.1-1.1,1.7-0.1,0.8,0.4c0,0.1-0.6,0.7,0.5,0.2
	c1-0.3,0.3,0.7,0,1.5c0.5-0.6,0.8-0.9,1-0.8c0.2,0.2,0.2,1.1,0.7-0.2c2,0.8-0.2,1.4,0.7,1.6c0.5-0.3,0.5-1,1.3-0.5
	c0.5,0.6,0.1,0.8,0.2,1.3c0.4-0.2,0.7-0.4,0.9-0.4c0.5,0.2,0,0.8,0.3,1c0.4-1,1.3,0.3,1.1,0.7c-0.4,0.7,1.2-0.4,1.3,0.8
	c0.1,0.6-0.4,0.8-0.4,0.8c0.8-0.3,1.2,1,0.8,1.8c0.8,0,0.9,1.8,0.4,2.2c0,0,0.7,0.2,0.4,1.5c-0.1,0.5-0.4,0.3-0.4,0.4
	c0.4,1.5,0.5,2.6,0.2,5.3c-0.1,0.8-0.3,1.2-1,1.7c-1.3,1.6,0.3,3.2,1.1,4.3c0.7,0.9,2.6,2.8,2,3.7c-0.3,1-2.8,1.2-2.5,1.8
	c0.4,0.9,0.9,2,0.9,2s0.9,1.1-1.8,1.6c-2.6,0.5,1.2,1.3,1.2,1.3c0.4,0.7-0.1,1-0.6,1.5c-0.3,0.7-0.4,1.2-0.1,2
	c1.1,1.6,1.1,2.6-0.6,3.1c-1.2,0.4-5.6,0.8-8.2,0.5c-0.8-0.1-2.2-0.3-2.3,0.9c0,1.6-0.3,2.5,0,4.2c0,1.3,0.6,2.3,1.1,3
	c1,1.4,1.5,3.3,4.5,3.6c1.8,0.6,5.3-0.6,5.8,1.6c-0.5,0-1,0.2-2.6,0.4c-7,0.1-6.9-0.5-11.1-0.6c-1.5,0.1-3.5,0.5-4.9,0.5
	c-0.3,1.8-0.6,3.6-1,5.5c0,0,0,0,0,0l-0.7,3.6c0,0,0,0,0,0c-0.3,1.6-0.7,3.2-1.1,4.8c1.7,1,3.4,2.4,3.4,5c0,3.1-2.4,5-6.1,5.4
	c-1.7,5.7-3.6,11.6-5.8,17.5h52.2C620.6,337.5,622.6,303.5,617.6,267.7"/>
<path class="st1" d="M566.3,338.7C566.3,338.7,566.3,338.7,566.3,338.7c-0.8,1.2-1.7,2.4-2.5,3.6c0,0,0,0,0,0L566.3,338.7z"/>
<path class="st1" d="M577.9,357.7c5.8,0,9.6-4.4,9.6-9.8c0-5.7-3.9-9.6-9.6-9.6c-5.8,0-9.7,3.8-9.7,9.6
	C568.2,353.6,572.2,357.7,577.9,357.7"/>
<path class="st1" d="M601.5,342.3c-1.1-0.2-2.1-0.4-3.2-0.4c-1.9,0-3.3,0.5-3.3,1.4c0,1.1,1.8,2,3.8,3.1c1.9,1.1,4.6,2.5,4.6,5.7
	c0,3.5-3.1,5.5-7.7,5.5c-2.1,0-3.6-0.4-5.3-0.8v-3.9c1.4,0.4,3.5,1.2,5.5,1.2c1.3,0,2.6-0.6,2.6-1.8c0-1.1-1.6-1.8-3.8-3.1
	c-2-1-4.6-3.2-4.6-5.9c0-3.2,3.1-5,7.3-5c1.4,0,2.7,0.1,4.1,0.3V342.3z"/>
<path class="st0" d="M573.1,347.9c0-3.4,1.6-5.6,4.8-5.6c3.2,0,4.7,2.1,4.7,5.6c0,3.3-1.5,5.8-4.7,5.8
	C574.9,353.8,573.1,351.3,573.1,347.9"/>
<path class="st2" d="M557.7,343.3c0,1.1,1.8,2,3.8,3.1c0.4,0.2,0.8,0.4,1.2,0.7c0.4-1.6,0.7-3.2,1.1-4.8c-1.1-0.2-1.7-0.4-2.8-0.4
	C559.1,341.9,557.7,342.4,557.7,343.3"/>
<path class="st2" d="M565.7,279.9l0.4-0.2c0,0-0.4-0.2-0.5-1.2c-0.1-0.9,0.9-1.2,0.9-1.2c-0.4-3.5-0.7-6.1-1.2-9.6h-59.6v107.3h48.5
	h0c2.2-5.9,4.1-11.7,5.8-17.5c-0.5,0.1-1,0.1-1.6,0.1c-2.1,0-3.6-0.4-5.3-0.8v-3.9c1.3,0.4,3.5,1.2,5.5,1.2c1.3,0,2.6-0.6,2.6-1.8
	c0-1.1-1.6-1.8-3.8-3.1c-2-1-4.6-3.2-4.6-5.9c0-3.2,3.1-5,7.3-5c1.4,0,3,0.2,4.4,0.4c0.3-1.8,0.7-3.7,1-5.5l0,0
	c-1.6,0-3.2-0.1-5-0.1c-1.3-0.5-3.1,0-4.7,0c-0.7,0-1.2-0.6-1.9-0.2c-0.5,0.1-4,0.3-4.4-0.1c1.5-2.1,8.5-1,9.6-3.1
	c2-1.1,2-2.9,2.3-4.6c1.2-0.6,0.6-1.4,0.9-2.1c-0.2-0.9-0.1-2,0.1-2.8l-0.8,0.9c-0.4,0.1-0.8,0.3-1.1-0.2c0.8-1.3-0.9-1.1-0.9-2
	c1.3-0.7,0.3-1.4,0.5-2.3c-0.9,0.4-0.8,1.3-1.7,1.4c-0.9-0.6,0.3-1.9-0.2-2.6c-0.3,0.2-1-0.4-1.2-0.1c0.6,0.4,0.5,1.4,0.4,1.9
	c-0.3,0.1-0.7,0.1-1-0.3c0,0-0.2,0.5-0.7,0.6c-0.6-0.4,0.4-1.3,0-1.7c-0.3,0.2-0.4,0.4-0.8,0.4c-0.5-0.2-0.3-1.1-0.4-1.6
	c-0.3,0.1-0.3,0.3-0.7,0.6c-0.4,0.2-1,0.7-2.3,0.1c0.9-1.8,2-1.2,2.9-1.7c0.2-0.5,1.1-1.3,0.5-1.7c-1.5,0.3-1.5,1.9-3.3,1.6
	c-0.6-1.4,1.5-1.9,0.7-2.5c0,0-1.3-0.8-1.3-0.3c0,1.4-0.1,2.3-1.2,2.6c-0.5-0.3-0.5-1-0.5-1.6c0.4-1-0.9-0.5-0.7-2
	c-0.2,0.1-0.9,1.2-1.6,0.9c-0.3-0.2,0.3-1.5,0.3-1.5c-0.5-0.4-1.3-0.2-1.8-0.6c-0.3-0.9,1-0.8,1.3-1.4c-0.8-0.8-1.3,0.6-2.2,0
	c0.1-0.2,0.8-0.4,0.7-1c-0.2-0.4-1.4,0.3-1.5-0.3c-0.1-0.4,1-0.9,1.4-1.2l-0.6-0.1c-1.3,0.3-1.7-0.1-0.2-0.8c-1.3-1.4,0.9-1,1.5-1.4
	c-1.8-0.4-2.8-1.4-2.3-1.9c0.5-0.6,2.2,0.3,2.2,0.3s-0.7-0.8-1.2-1.6c-0.5-0.8,1.9-0.8,2.4-1.9l-0.5-0.2c-0.5,0-0.3-0.8-1,0.2
	c-0.4,0.6-1.2,0.3-1.8,0c0-1.1,0.8-1.7,1.8-2.2c1.6-0.3,1.2-0.6,2-0.8c0,0-0.5-0.4-0.8-0.3c-0.3,0.1-0.6,0.1-0.6,0.1
	c-1.6,0.2-2.7,0.2-3.8-0.6c0.2-0.7,1.2-0.6,1.8-0.8c-0.5-0.5-0.5-1.2-0.3-1.4c0.7-0.2,1.5,1.2,1.8,1.5c0,0-0.4-1,0.2-1.4
	c0.8,0.3,0.5,1.8,1.9,1.7c-1.1-1.4-0.8-1.7,0.8-1c0.2-0.6-1.3-0.8-1.5-1.2c-0.2-0.4,1-0.8,1-0.8s-2.2-0.4-2.6-2
	c-0.1-0.7,2.9-0.1,3.9,1.5c0.9,0.1,1.1-0.1,1.8-0.4c-0.6-0.5-1.1-0.6-1.4-1.8l-0.3,0.3c0,0-0.2,0.2-1-0.1c-0.6-0.2-1.2-0.8-1.2-1.5
	c0.6-0.2,1.8-0.5,2.2,0.3c0,0,0.1,0.2,0.1,0.3c0,0.1,0.3,0.1,0.3,0c1-0.3,1.8,0.3,2.9-0.1c-0.2-0.5-0.1-0.6-0.8-1
	c-0.4,0.2-0.4,0.2-1,0.3c-1.2-0.2-2.1-1-2.5-2c0.2-0.2,0.6,0.2,1.1,0.1c0.9,0.1,2,0.3,2.1,1.2c0.4-0.3,0.7-0.7,2-0.9
	c-1-0.2-1.7-0.3-1.8-1.1c0.8-0.8,2-0.3,2.9,0.4c0.1,0-0.2-0.4-0.2-0.4l-0.5-0.7c-0.3-0.5-0.1-1.1,0.4-1.5c0.3,0.1,0.6,0.5,0.7,1.1
	c1.1,1.2,0.2-1.1,1.5-1.3c0.8,1-0.4,1.3-0.3,1.7c0.1,0.3,0.3,0.5,1,0.6c0.1-0.6,0.6-1,0.7-1.7c-0.5-0.8,0-2.2,1.3-2.5
	c1.1,1.1-1.1,2.3,0.3,2.5c1.3-0.6-0.2-2.2,1.4-2.9c0.5,0.9-0.1,1.5,0.1,1.8c0.1,0.2,0.8,0.3,1,0.2c-0.7-0.6-0.2-1.6,0-2.3
	c0.4-0.1,0.7,1,0.6,1.4c1.4-0.8,0.2,0.6,1.9,0.5c0.4-0.9-1.1-1.1-0.5-2.4c1.6-0.4,1.3,0.7,1.3,1.4
	C565.2,279.2,565.7,279.9,565.7,279.9"/>
<path class="st1" d="M520.5,357.1c0.1-2.1,0.2-3.7,0.2-6.6v-9.9c0-3.6-0.2-6.3-0.7-8.9h6.4c0,1.8-0.2,4.4-0.2,7.2v9.3
	c0,2.6,0.4,6.5,0.7,8.9H520.5z"/>
<path class="st1" d="M536,348.4c0-3.7,1.5-6.2,4.6-6.2c2.9,0,4.9,2.5,4.9,6.1c0,3.2-1.6,5.4-4.7,5.4C537.8,353.8,536,352,536,348.4
	 M536.8,364.9c-0.4-2.7-0.4-5.8-0.4-6.8v-2.1c1.3,0.8,2.7,1.8,5.6,1.8c5,0,8.4-3.9,8.4-9.3c0-5.9-3.5-10-8.6-10
	c-3.5,0-5,1.7-6.2,3.1c-0.3-1-0.4-1.8-0.7-2.6l-4.6,0.4c0.6,3.1,1.1,6,1.1,9.2v7.5c0,2.6-0.5,7.6-0.7,9.3L536.8,364.9z"/>
<path class="st2" d="M584.8,302.2c-0.9-1.2-2.5-2.8-1.1-4.3c0.7-0.6,0.9-1,1-1.7c0.3-2.6,0.2-3.8-0.2-5.3c0.1-0.1,0.3,0,0.4-0.4
	c0.3-1.3-0.4-1.5-0.4-1.5c0.5-0.5,0.5-2.2-0.4-2.2c0.5-0.8,0.1-2-0.8-1.8c0,0,0.4-0.2,0.4-0.8c-0.1-1.1-1.7,0-1.3-0.8
	c0.2-0.4-0.7-1.7-1.1-0.7c-0.3-0.2,0.2-0.8-0.3-1c-0.3,0-0.6,0.2-0.9,0.4c-0.1-0.4,0.3-0.7-0.2-1.3c-0.7-0.5-0.8,0.2-1.3,0.5
	c-0.9-0.2,1.3-0.8-0.7-1.6c-0.5,1.2-0.5,0.3-0.7,0.2c-0.1-0.1-0.4,0.2-1,0.8c0.3-0.8,0.9-1.8,0-1.5c-1.1,0.5-0.5-0.2-0.5-0.2
	c0.9-0.4-0.9-1.5-0.8-0.4c0,0.8-1.6,1.4-1.2,0.5c0.3-1.1,1.7,0.6,0.5-1.4c-0.7,0.9-1.3,1.4-1.4,1.7c-0.6,2.3-0.3,0.2-0.8,0.2
	c0.8-0.5,1.8-1.5,1.5-2.1c-0.9-0.1-2.8,1.4-1.6,1.5c-0.1,0.5-0.8,1-1.2,0.2c0.7-0.2,1.9-2.6,0.4-1.9c-0.1,0.1-0.1,0.6-0.4,1
	c-0.4-0.3-0.1-0.8-0.2-1c-1.2-1.1-0.8,1.8-0.7,2.4c-1.5-1-0.1-0.7-0.5-2.3c-1.3,0.2-1.6,0.8-1.4,2.3c-0.2,0.4-0.5,1.2-0.7,0.2
	c0.7-0.9,0.6-2.3-0.6-2.3c1.9,18.3,1.8,36.8-1,54.9l-0.1,1c1.4,0,3.4-0.4,4.9-0.5c4.2,0.1,4.1,0.7,11.1,0.6c1.6-0.2,2.1-0.4,2.6-0.4
	c-0.5-2.2-4-1-5.8-1.6c-3-0.3-3.6-2.2-4.5-3.6c-0.4-0.8-1.1-1.7-1.1-3c-0.2-1.7,0.1-2.5,0-4.2c0.1-1.2,1.5-1,2.3-0.9
	c2.6,0.3,7-0.2,8.2-0.5c1.7-0.5,1.7-1.6,0.6-3.1c-0.2-0.8-0.2-1.3,0.1-2c0.5-0.5,1.1-0.9,0.6-1.5c0,0-3.8-0.8-1.2-1.3
	c2.7-0.5,1.8-1.6,1.8-1.6s-0.4-1.1-0.9-2c-0.3-0.6,2.2-0.8,2.5-1.8C587.4,305,585.5,303.1,584.8,302.2 M579.1,301.2
	c-1.6,0.4-4.1-0.8-3.8-1c0.8-0.6,2.7-1.6,4.6-0.9c0.3,0.1,0.4,0.4,0.5,0.8C580.5,301.1,579.7,301.1,579.1,301.2"/>
<path class="st2" d="M551.1,308.8l-0.5,0.6c1.1,0.5,2.2-0.5,2.5-1.4l0.1-1C552.3,307.3,551.5,307.9,551.1,308.8"/>
<path class="st2" d="M557,311.6l-1.1-0.1c0,1,0.3,1.7,1.3,2.3l0.8,0.2C559.2,313.1,557.7,312.2,557,311.6"/>
<path class="st2" d="M548.5,294.4l-0.6,0.5c1.2,0.5,2.3-0.3,2.7-1.4l0.2-1C549.8,292.9,549.1,292.9,548.5,294.4"/>
<path class="st2" d="M548.8,298.6l-0.2-0.9c-1.1,0.3-1.9,0.7-2.3,1.7v0.7C547.6,300.7,548.4,299.2,548.8,298.6"/>
<path class="st2" d="M545.5,305.2l0.4,0.4c1.4,0.7,1.5-1,1.8-1.6l0.5-0.7C547,302.9,545.8,304.3,545.5,305.2"/>
<path class="st2" d="M553.6,284.7l-0.5,0.4c0.1,1.3,2.1,2.8,2.6,1.8l0.1-1.3C555.1,284.9,554.4,284.6,553.6,284.7"/>
<path class="st2" d="M560.9,282.4l-1.1-0.2c-0.6,0.6-0.9,1-0.3,2.1l0.6,0.8C561.4,284.2,562.6,283.3,560.9,282.4"/>
<path class="st1" d="M573.1,347.9c0-3.4,1.6-5.6,4.8-5.6c3.2,0,4.7,2.1,4.7,5.6c0,3.3-1.5,5.9-4.7,5.9
	C574.9,353.8,573.1,351.3,573.1,347.9 M577.9,357.7c5.8,0,9.6-4.4,9.6-9.8c0-5.7-3.9-9.6-9.6-9.6c-5.8,0-9.7,3.8-9.7,9.6
	C568.2,353.6,572.2,357.7,577.9,357.7"/>
<path class="st1" d="M601.5,342.3c-1.1-0.2-2.1-0.4-3.2-0.4c-1.9,0-3.3,0.5-3.3,1.4c0,1.1,1.8,2,3.8,3.1c1.9,1.1,4.6,2.5,4.6,5.7
	c0,3.5-3.1,5.5-7.7,5.5c-2.1,0-3.6-0.4-5.3-0.8v-3.9c1.4,0.4,3.5,1.2,5.5,1.2c1.3,0,2.6-0.6,2.6-1.8c0-1.1-1.6-1.8-3.8-3.1
	c-2-1-4.6-3.2-4.6-5.9c0-3.2,3.1-5,7.3-5c1.4,0,2.7,0.1,4.1,0.3V342.3z"/>
<path class="st1" d="M520.5,357.1c0.1-2.1,0.2-3.7,0.2-6.6v-9.9c0-3.6-0.2-6.3-0.7-8.9h6.4c0,1.8-0.2,4.4-0.2,7.2v9.3
	c0,2.6,0.4,6.5,0.7,8.9H520.5z"/>
<path class="st1" d="M536,348.4c0-3.7,1.5-6.2,4.6-6.2c2.9,0,4.9,2.5,4.9,6.1c0,3.2-1.6,5.4-4.7,5.4C537.8,353.8,536,352,536,348.4
	 M536.8,364.9c-0.4-2.7-0.4-5.8-0.4-6.8v-2.1c1.3,0.8,2.7,1.8,5.6,1.8c5,0,8.4-3.9,8.4-9.3c0-5.9-3.5-10-8.6-10
	c-3.5,0-5,1.7-6.2,3.1c-0.3-1-0.4-1.8-0.7-2.6l-4.6,0.4c0.6,3.1,1.1,6,1.1,9.2v7.5c0,2.6-0.5,7.6-0.7,9.3L536.8,364.9z"/>
<path class="st1" d="M563.8,342.3c-1.1-0.2-1.7-0.4-2.8-0.4c-1.9,0-3.3,0.5-3.3,1.4c0,1.1,1.8,2,3.8,3.1c1.9,1.1,4.6,2.5,4.6,5.7
	c0,3.5-3.1,5.5-7.7,5.5c-2.1,0-3.6-0.4-5.3-0.8v-3.9c1.3,0.4,3.5,1.2,5.5,1.2c1.3,0,2.6-0.6,2.6-1.8c0-1.1-1.6-1.8-3.8-3.1
	c-2-1-4.6-3.2-4.6-5.9c0-3.2,3.1-5,7.3-5c1.4,0,3,0.2,4.4,0.4L563.8,342.3z"/>
<path class="st2" d="M48.3,357.5h5v-19.3h-15v5.9h7.9c-0.5,5-3.4,7.7-8.5,7.7c-7.1,0-9.7-6-9.7-12c0-6.3,2.7-12.3,9.7-12.3
	c3.7,0,6.7,2.1,7.6,6h7.5c-0.9-8.1-7.8-12.6-15.1-12.6c-11.1,0-17.6,8.3-17.6,18.9c0,10.3,6.5,18.6,17.6,18.6c3.5,0,7.1-1.4,9.8-4.9
	L48.3,357.5z M56.8,357.5h8l2.8-8H81l2.7,8h8.2l-13.4-35.8h-8.1L56.8,357.5z M74.3,330.5h0.1l4.5,13.1h-9.3L74.3,330.5z M95,357.5
	h7.4v-25.1h0.1l8.8,25.1h6.1l8.8-25.4h0.1v25.4h7.4v-35.8h-11.1l-7.9,24.6h-0.1l-8.4-24.6H95V357.5z M140.4,357.5h27.2v-6.6h-19.3
	v-8.8h17.3V336h-17.3v-7.7h18.9v-6.6h-26.8V357.5z M218.3,333.7c-1-8.3-7.6-12.9-15.4-12.9c-11.1,0-17.6,8.3-17.6,18.9
	c0,10.3,6.5,18.6,17.6,18.6c8.8,0,14.9-5.7,15.7-14.6H211c-0.6,4.7-3.3,8-8.1,8c-7.1,0-9.7-6-9.7-12c0-6.3,2.7-12.3,9.7-12.3
	c3.9,0,7.3,2.7,7.8,6.3H218.3z M224,357.5h7.9v-15.4h14.5v15.4h7.9v-35.8h-7.9v13.7h-14.5v-13.7H224V357.5z M257.3,357.5h8l2.8-8
	h13.4l2.7,8h8.2l-13.4-35.8h-8.1L257.3,357.5z M274.8,330.5L274.8,330.5l4.6,13.1h-9.3L274.8,330.5z M295.4,357.5h7.4v-24h0.1
	l14.9,24h7.9v-35.8h-7.4v24h-0.1l-14.9-24h-7.8V357.5z M359.2,357.5h5v-19.3h-15v5.9h7.9c-0.5,5-3.4,7.7-8.5,7.7
	c-7.1,0-9.7-6-9.7-12c0-6.3,2.7-12.3,9.7-12.3c3.7,0,6.7,2.1,7.6,6h7.5c-0.9-8.1-7.8-12.6-15.1-12.6c-11.1,0-17.6,8.3-17.6,18.9
	c0,10.3,6.5,18.6,17.6,18.6c3.5,0,7.1-1.4,9.8-4.9L359.2,357.5z M370.6,357.5h27.2v-6.6h-19.3v-8.8h17.3V336h-17.3v-7.7h18.9v-6.6
	h-26.8V357.5z M403.1,357.5h7.9v-14h7.9c4,0,5.4,1.7,6,5.4c0.4,2.9,0.3,6.3,1.3,8.6h7.9c-1.4-2-1.4-6.2-1.5-8.5
	c-0.3-3.6-1.3-7.4-5.2-8.4v-0.1c4-1.6,5.7-4.8,5.7-9c0-5.4-4.1-9.9-10.5-9.9h-19.3V357.5z M411,327.8h8.6c3.5,0,5.4,1.5,5.4,5
	c0,3.6-1.9,5.1-5.4,5.1H411V327.8z M437,345.6c-0.1,8.8,7.3,12.7,15.2,12.7c9.7,0,14.9-4.9,14.9-11.5c0-8.1-8-9.8-10.6-10.4
	c-9-2.3-10.7-2.7-10.7-5.4c0-3,2.9-4.1,5.4-4.1c3.8,0,6.8,1.1,7.1,5.4h7.6c0-8.3-6.9-11.5-14.3-11.5c-6.5,0-13.4,3.5-13.4,10.8
	c0,6.7,5.4,8.8,10.7,10.2c5.3,1.4,10.6,2.1,10.6,5.9c0,3.7-4.2,4.5-7,4.5c-4.2,0-7.9-1.9-7.9-6.6H437z"/>
<path class="st0" d="M565.5,333.3c-1.6,0-3.2-0.1-5-0.1c-1.3-0.5-3.1,0-4.7,0c-0.7,0-1.2-0.6-1.9-0.2c-0.5,0.1-4,0.3-4.4-0.1
	c1.5-2.1,8.5-1,9.6-3.1c2-1.1,2-2.9,2.3-4.6c1.2-0.6,0.6-1.4,0.9-2.1c-0.2-0.9-0.1-2,0.1-2.8l-0.8,0.9c-0.4,0.1-0.8,0.3-1.1-0.2
	c0.8-1.3-0.9-1-0.9-2c1.3-0.7,0.3-1.4,0.4-2.3c-0.9,0.4-0.8,1.3-1.7,1.4c-0.9-0.6,0.3-1.9-0.2-2.6c-0.3,0.2-1-0.4-1.2-0.1
	c0.6,0.4,0.5,1.4,0.4,1.9c-0.3,0.1-0.7,0.1-1-0.3c0,0-0.2,0.5-0.7,0.6c-0.6-0.4,0.4-1.3,0-1.7c-0.3,0.2-0.4,0.4-0.8,0.4
	c-0.5-0.2-0.3-1.1-0.4-1.6c-0.3,0.1-0.3,0.3-0.7,0.6c-0.4,0.2-1,0.7-2.3,0.1c0.9-1.8,2-1.2,2.9-1.7c0.2-0.5,1.1-1.3,0.5-1.7
	c-1.5,0.3-1.5,1.9-3.3,1.6c-0.6-1.4,1.5-1.9,0.7-2.5c0,0-1.3-0.8-1.3-0.3c0,1.4-0.1,2.3-1.2,2.6c-0.5-0.3-0.5-1-0.5-1.6
	c0.4-1-0.9-0.5-0.7-2c-0.2,0.1-0.9,1.2-1.6,0.9c-0.3-0.2,0.3-1.5,0.3-1.5c-0.5-0.4-1.3-0.2-1.8-0.6c-0.3-0.9,1-0.8,1.3-1.4
	c-0.8-0.8-1.3,0.6-2.2,0c0.1-0.2,0.8-0.4,0.7-1c-0.2-0.4-1.4,0.3-1.5-0.3c-0.1-0.4,1-0.9,1.4-1.2l-0.6-0.1c-1.2,0.3-1.7-0.1-0.2-0.8
	c-1.3-1.4,0.8-1,1.5-1.4c-1.8-0.4-2.8-1.4-2.3-2c0.5-0.6,2.2,0.3,2.2,0.3s-0.7-0.8-1.2-1.6c-0.5-0.8,1.9-0.8,2.4-1.9l-0.5-0.2
	c-0.5,0-0.3-0.8-1,0.2c-0.4,0.6-1.2,0.3-1.8,0c0-1.1,0.8-1.7,1.8-2.2c1.6-0.3,1.2-0.6,2-0.8c0,0-0.5-0.4-0.8-0.3
	c-0.3,0.1-0.6,0.1-0.6,0.1c-1.6,0.2-2.7,0.2-3.8-0.6c0.2-0.7,1.2-0.6,1.8-0.8c-0.5-0.5-0.5-1.2-0.3-1.4c0.7-0.2,1.5,1.2,1.8,1.5
	c0,0-0.4-1,0.2-1.4c0.8,0.3,0.5,1.8,1.9,1.7c-1.1-1.4-0.8-1.7,0.8-1c0.2-0.6-1.3-0.8-1.5-1.2c-0.2-0.4,1-0.8,1-0.8s-2.2-0.4-2.6-2
	c-0.1-0.7,2.9-0.1,3.9,1.5c0.9,0.1,1.1-0.1,1.8-0.4c-0.6-0.5-1.1-0.6-1.4-1.8l-0.3,0.3c0,0-0.2,0.2-1-0.1c-0.6-0.2-1.2-0.8-1.2-1.5
	c0.6-0.2,1.8-0.5,2.2,0.3c0,0,0.1,0.3,0.1,0.3c0,0.1,0.3,0.1,0.3,0c1-0.3,1.8,0.3,2.9-0.1c-0.2-0.5-0.1-0.6-0.8-1
	c-0.4,0.2-0.4,0.2-1,0.3c-1.2-0.2-2.1-1-2.5-2c0.2-0.2,0.6,0.2,1.1,0.1c0.9,0.1,2,0.3,2.1,1.2c0.4-0.3,0.7-0.7,2-0.9
	c-1-0.2-1.7-0.3-1.8-1.1c0.8-0.8,2-0.3,2.9,0.4c0.1,0-0.2-0.4-0.2-0.4l-0.5-0.7c-0.3-0.5-0.1-1.1,0.4-1.5c0.3,0.1,0.6,0.5,0.7,1.1
	c1.1,1.2,0.2-1,1.5-1.3c0.8,1-0.4,1.3-0.3,1.7c0.1,0.3,0.3,0.5,1,0.6c0.1-0.6,0.6-1,0.7-1.7c-0.5-0.8,0-2.2,1.3-2.5
	c1.1,1.1-1.1,2.3,0.3,2.5c1.3-0.6-0.2-2.2,1.4-2.9c0.5,0.9-0.1,1.5,0.1,1.8c0.1,0.2,0.8,0.3,1,0.2c-0.7-0.6-0.2-1.6,0-2.3
	c0.4-0.1,0.7,1,0.6,1.4c1.4-0.8,0.2,0.6,1.9,0.5c0.4-0.9-1.1-1.1-0.5-2.4c1.6-0.4,1.3,0.7,1.3,1.4c0,0,0.5,0.7,0.5,0.7l0.4-0.2
	c0,0-0.4-0.2-0.5-1.2c-0.1-0.9,0.9-1.2,0.9-1.2l0,0c1.9,18.3,1.8,36.8-1,54.9L565.5,333.3z"/>
<path class="st1" d="M551.1,308.8l-0.5,0.6c1.1,0.5,2.2-0.5,2.5-1.4l0.1-1C552.3,307.3,551.5,307.9,551.1,308.8"/>
<path class="st1" d="M557,311.6l-1.1-0.1c0,1,0.3,1.7,1.3,2.3l0.8,0.2C559.2,313.1,557.7,312.2,557,311.6"/>
<path class="st1" d="M548.5,294.4l-0.6,0.5c1.2,0.5,2.3-0.3,2.7-1.4l0.2-1C549.8,292.9,549.1,292.9,548.5,294.4"/>
<path class="st1" d="M548.8,298.6l-0.2-0.9c-1.1,0.3-1.9,0.7-2.3,1.7v0.7C547.6,300.7,548.4,299.2,548.8,298.6"/>
<path class="st1" d="M545.5,305.2l0.4,0.4c1.4,0.7,1.5-1,1.8-1.6l0.5-0.7C547,302.9,545.8,304.3,545.5,305.2"/>
<path class="st1" d="M560.9,282.4l-1.1-0.2c-0.6,0.6-0.9,1-0.3,2.1l0.6,0.8C561.4,284.2,562.6,283.3,560.9,282.4"/>
<path class="st0" d="M579.1,301.5c-1.6,0.4-4.1-0.9-3.8-1.1c0.8-0.7,2.7-1.8,4.6-1c0.3,0.1,0.4,0.5,0.5,1
	C580.5,301.3,579.7,301.4,579.1,301.5"/>
<path class="st1" d="M553.6,284.7l-0.5,0.4c0.1,1.3,2.1,2.8,2.6,1.8l0.1-1.3C555.1,284.9,554.4,284.6,553.6,284.7"/>
<path class="st0" d="M617.6,267.7h-52.2c0.5,3.5,0.8,6.1,1.2,9.6l0,0c1.2,0,1.3,1.4,0.6,2.3c0.2,1,0.5,0.2,0.7-0.2
	c-0.2-1.5,0.1-2,1.4-2.3c0.4,1.6-1,1.4,0.5,2.3c0-0.6-0.5-3.5,0.7-2.4c0.1,0.2-0.2,0.7,0.2,1c0.3-0.4,0.3-0.8,0.4-1
	c1.5-0.7,0.3,1.7-0.4,1.9c0.4,0.8,1.1,0.3,1.2-0.2c-1.2-0.1,0.7-1.6,1.6-1.5c0.3,0.6-0.7,1.6-1.5,2.1c0.6,0,0.3,2.2,0.9-0.2
	c0.1-0.3,0.7-0.9,1.4-1.7c1.2,2-0.2,0.3-0.5,1.4c-0.4,0.9,1.1,0.3,1.2-0.5c-0.1-1.1,1.7-0.1,0.8,0.4c0,0.1-0.6,0.7,0.5,0.2
	c1-0.3,0.3,0.7,0,1.5c0.5-0.6,0.8-0.9,1-0.8c0.2,0.2,0.2,1.1,0.7-0.2c2,0.8-0.2,1.4,0.7,1.6c0.5-0.3,0.5-1,1.3-0.5
	c0.5,0.6,0.1,0.8,0.2,1.3c0.4-0.2,0.7-0.4,0.9-0.4c0.5,0.2,0,0.8,0.3,1c0.4-1,1.3,0.3,1.1,0.7c-0.4,0.7,1.2-0.4,1.3,0.8
	c0.1,0.6-0.4,0.8-0.4,0.8c0.8-0.3,1.2,1,0.8,1.8c0.8,0,0.9,1.8,0.4,2.2c0,0,0.7,0.2,0.4,1.5c-0.1,0.5-0.4,0.3-0.4,0.4
	c0.4,1.5,0.5,2.6,0.2,5.3c-0.1,0.8-0.3,1.2-1,1.7c-1.3,1.6,0.3,3.2,1.1,4.3c0.7,0.9,2.6,2.8,2,3.7c-0.3,1-2.8,1.2-2.5,1.8
	c0.4,0.9,0.9,2,0.9,2s0.9,1.1-1.8,1.6c-2.6,0.5,1.2,1.3,1.2,1.3c0.4,0.7-0.1,1-0.6,1.5c-0.3,0.7-0.4,1.2-0.1,2
	c1.1,1.6,1.1,2.6-0.6,3.1c-1.2,0.4-5.6,0.8-8.2,0.5c-0.8-0.1-2.2-0.3-2.3,0.9c0,1.6-0.3,2.5,0,4.2c0,1.3,0.6,2.3,1.1,3
	c1,1.4,1.5,3.3,4.5,3.6c1.8,0.6,5.3-0.6,5.8,1.6c-0.5,0-1,0.2-2.6,0.4c-7,0.1-6.9-0.5-11.1-0.6c-1.5,0.1-3.5,0.5-4.9,0.5
	c-0.3,1.8-0.6,3.6-1,5.5c0,0,0,0,0,0l-0.7,3.6c0,0,0,0,0,0c-0.3,1.6-0.7,3.2-1.1,4.8c1.7,1,3.4,2.4,3.4,5c0,3.1-2.4,5-6.1,5.4
	c-1.7,5.7-3.6,11.6-5.8,17.5h52.2C620.6,337.5,622.6,303.5,617.6,267.7"/>
<path class="st1" d="M566.3,338.7C566.3,338.7,566.3,338.7,566.3,338.7c-0.8,1.2-1.7,2.4-2.5,3.6c0,0,0,0,0,0L566.3,338.7z"/>
<path class="st1" d="M577.9,357.7c5.8,0,9.6-4.4,9.6-9.8c0-5.7-3.9-9.6-9.6-9.6c-5.8,0-9.7,3.8-9.7,9.6
	C568.2,353.6,572.2,357.7,577.9,357.7"/>
<path class="st1" d="M601.5,342.3c-1.1-0.2-2.1-0.4-3.2-0.4c-1.9,0-3.3,0.5-3.3,1.4c0,1.1,1.8,2,3.8,3.1c1.9,1.1,4.6,2.5,4.6,5.7
	c0,3.5-3.1,5.5-7.7,5.5c-2.1,0-3.6-0.4-5.3-0.8v-3.9c1.4,0.4,3.5,1.2,5.5,1.2c1.3,0,2.6-0.6,2.6-1.8c0-1.1-1.6-1.8-3.8-3.1
	c-2-1-4.6-3.2-4.6-5.9c0-3.2,3.1-5,7.3-5c1.4,0,2.7,0.1,4.1,0.3V342.3z"/>
<path class="st0" d="M573.1,347.9c0-3.4,1.6-5.6,4.8-5.6c3.2,0,4.7,2.1,4.7,5.6c0,3.3-1.5,5.8-4.7,5.8
	C574.9,353.8,573.1,351.3,573.1,347.9"/>
<path class="st2" d="M557.7,343.3c0,1.1,1.8,2,3.8,3.1c0.4,0.2,0.8,0.4,1.2,0.7c0.4-1.6,0.7-3.2,1.1-4.8c-1.1-0.2-1.7-0.4-2.8-0.4
	C559.1,341.9,557.7,342.4,557.7,343.3"/>
<path class="st2" d="M565.7,279.9l0.4-0.2c0,0-0.4-0.2-0.5-1.2c-0.1-0.9,0.9-1.2,0.9-1.2c-0.4-3.5-0.7-6.1-1.2-9.6h-59.6v107.3h48.5
	h0c2.2-5.9,4.1-11.7,5.8-17.5c-0.5,0.1-1,0.1-1.6,0.1c-2.1,0-3.6-0.4-5.3-0.8v-3.9c1.3,0.4,3.5,1.2,5.5,1.2c1.3,0,2.6-0.6,2.6-1.8
	c0-1.1-1.6-1.8-3.8-3.1c-2-1-4.6-3.2-4.6-5.9c0-3.2,3.1-5,7.3-5c1.4,0,3,0.2,4.4,0.4c0.3-1.8,0.7-3.7,1-5.5l0,0
	c-1.6,0-3.2-0.1-5-0.1c-1.3-0.5-3.1,0-4.7,0c-0.7,0-1.2-0.6-1.9-0.2c-0.5,0.1-4,0.3-4.4-0.1c1.5-2.1,8.5-1,9.6-3.1
	c2-1.1,2-2.9,2.3-4.6c1.2-0.6,0.6-1.4,0.9-2.1c-0.2-0.9-0.1-2,0.1-2.8l-0.8,0.9c-0.4,0.1-0.8,0.3-1.1-0.2c0.8-1.3-0.9-1.1-0.9-2
	c1.3-0.7,0.3-1.4,0.5-2.3c-0.9,0.4-0.8,1.3-1.7,1.4c-0.9-0.6,0.3-1.9-0.2-2.6c-0.3,0.2-1-0.4-1.2-0.1c0.6,0.4,0.5,1.4,0.4,1.9
	c-0.3,0.1-0.7,0.1-1-0.3c0,0-0.2,0.5-0.7,0.6c-0.6-0.4,0.4-1.3,0-1.7c-0.3,0.2-0.4,0.4-0.8,0.4c-0.5-0.2-0.3-1.1-0.4-1.6
	c-0.3,0.1-0.3,0.3-0.7,0.6c-0.4,0.2-1,0.7-2.3,0.1c0.9-1.8,2-1.2,2.9-1.7c0.2-0.5,1.1-1.3,0.5-1.7c-1.5,0.3-1.5,1.9-3.3,1.6
	c-0.6-1.4,1.5-1.9,0.7-2.5c0,0-1.3-0.8-1.3-0.3c0,1.4-0.1,2.3-1.2,2.6c-0.5-0.3-0.5-1-0.5-1.6c0.4-1-0.9-0.5-0.7-2
	c-0.2,0.1-0.9,1.2-1.6,0.9c-0.3-0.2,0.3-1.5,0.3-1.5c-0.5-0.4-1.3-0.2-1.8-0.6c-0.3-0.9,1-0.8,1.3-1.4c-0.8-0.8-1.3,0.6-2.2,0
	c0.1-0.2,0.8-0.4,0.7-1c-0.2-0.4-1.4,0.3-1.5-0.3c-0.1-0.4,1-0.9,1.4-1.2l-0.6-0.1c-1.3,0.3-1.7-0.1-0.2-0.8c-1.3-1.4,0.9-1,1.5-1.4
	c-1.8-0.4-2.8-1.4-2.3-1.9c0.5-0.6,2.2,0.3,2.2,0.3s-0.7-0.8-1.2-1.6c-0.5-0.8,1.9-0.8,2.4-1.9l-0.5-0.2c-0.5,0-0.3-0.8-1,0.2
	c-0.4,0.6-1.2,0.3-1.8,0c0-1.1,0.8-1.7,1.8-2.2c1.6-0.3,1.2-0.6,2-0.8c0,0-0.5-0.4-0.8-0.3c-0.3,0.1-0.6,0.1-0.6,0.1
	c-1.6,0.2-2.7,0.2-3.8-0.6c0.2-0.7,1.2-0.6,1.8-0.8c-0.5-0.5-0.5-1.2-0.3-1.4c0.7-0.2,1.5,1.2,1.8,1.5c0,0-0.4-1,0.2-1.4
	c0.8,0.3,0.5,1.8,1.9,1.7c-1.1-1.4-0.8-1.7,0.8-1c0.2-0.6-1.3-0.8-1.5-1.2c-0.2-0.4,1-0.8,1-0.8s-2.2-0.4-2.6-2
	c-0.1-0.7,2.9-0.1,3.9,1.5c0.9,0.1,1.1-0.1,1.8-0.4c-0.6-0.5-1.1-0.6-1.4-1.8l-0.3,0.3c0,0-0.2,0.2-1-0.1c-0.6-0.2-1.2-0.8-1.2-1.5
	c0.6-0.2,1.8-0.5,2.2,0.3c0,0,0.1,0.2,0.1,0.3c0,0.1,0.3,0.1,0.3,0c1-0.3,1.8,0.3,2.9-0.1c-0.2-0.5-0.1-0.6-0.8-1
	c-0.4,0.2-0.4,0.2-1,0.3c-1.2-0.2-2.1-1-2.5-2c0.2-0.2,0.6,0.2,1.1,0.1c0.9,0.1,2,0.3,2.1,1.2c0.4-0.3,0.7-0.7,2-0.9
	c-1-0.2-1.7-0.3-1.8-1.1c0.8-0.8,2-0.3,2.9,0.4c0.1,0-0.2-0.4-0.2-0.4l-0.5-0.7c-0.3-0.5-0.1-1.1,0.4-1.5c0.3,0.1,0.6,0.5,0.7,1.1
	c1.1,1.2,0.2-1.1,1.5-1.3c0.8,1-0.4,1.3-0.3,1.7c0.1,0.3,0.3,0.5,1,0.6c0.1-0.6,0.6-1,0.7-1.7c-0.5-0.8,0-2.2,1.3-2.5
	c1.1,1.1-1.1,2.3,0.3,2.5c1.3-0.6-0.2-2.2,1.4-2.9c0.5,0.9-0.1,1.5,0.1,1.8c0.1,0.2,0.8,0.3,1,0.2c-0.7-0.6-0.2-1.6,0-2.3
	c0.4-0.1,0.7,1,0.6,1.4c1.4-0.8,0.2,0.6,1.9,0.5c0.4-0.9-1.1-1.1-0.5-2.4c1.6-0.4,1.3,0.7,1.3,1.4
	C565.2,279.2,565.7,279.9,565.7,279.9"/>
<path class="st1" d="M520.5,357.1c0.1-2.1,0.2-3.7,0.2-6.6v-9.9c0-3.6-0.2-6.3-0.7-8.9h6.4c0,1.8-0.2,4.4-0.2,7.2v9.3
	c0,2.6,0.4,6.5,0.7,8.9H520.5z"/>
<path class="st1" d="M536,348.4c0-3.7,1.5-6.2,4.6-6.2c2.9,0,4.9,2.5,4.9,6.1c0,3.2-1.6,5.4-4.7,5.4C537.8,353.8,536,352,536,348.4
	 M536.8,364.9c-0.4-2.7-0.4-5.8-0.4-6.8v-2.1c1.3,0.8,2.7,1.8,5.6,1.8c5,0,8.4-3.9,8.4-9.3c0-5.9-3.5-10-8.6-10
	c-3.5,0-5,1.7-6.2,3.1c-0.3-1-0.4-1.8-0.7-2.6l-4.6,0.4c0.6,3.1,1.1,6,1.1,9.2v7.5c0,2.6-0.5,7.6-0.7,9.3L536.8,364.9z"/>
<path class="st2" d="M584.8,302.2c-0.9-1.2-2.5-2.8-1.1-4.3c0.7-0.6,0.9-1,1-1.7c0.3-2.6,0.2-3.8-0.2-5.3c0.1-0.1,0.3,0,0.4-0.4
	c0.3-1.3-0.4-1.5-0.4-1.5c0.5-0.5,0.5-2.2-0.4-2.2c0.5-0.8,0.1-2-0.8-1.8c0,0,0.4-0.2,0.4-0.8c-0.1-1.1-1.7,0-1.3-0.8
	c0.2-0.4-0.7-1.7-1.1-0.7c-0.3-0.2,0.2-0.8-0.3-1c-0.3,0-0.6,0.2-0.9,0.4c-0.1-0.4,0.3-0.7-0.2-1.3c-0.7-0.5-0.8,0.2-1.3,0.5
	c-0.9-0.2,1.3-0.8-0.7-1.6c-0.5,1.2-0.5,0.3-0.7,0.2c-0.1-0.1-0.4,0.2-1,0.8c0.3-0.8,0.9-1.8,0-1.5c-1.1,0.5-0.5-0.2-0.5-0.2
	c0.9-0.4-0.9-1.5-0.8-0.4c0,0.8-1.6,1.4-1.2,0.5c0.3-1.1,1.7,0.6,0.5-1.4c-0.7,0.9-1.3,1.4-1.4,1.7c-0.6,2.3-0.3,0.2-0.8,0.2
	c0.8-0.5,1.8-1.5,1.5-2.1c-0.9-0.1-2.8,1.4-1.6,1.5c-0.1,0.5-0.8,1-1.2,0.2c0.7-0.2,1.9-2.6,0.4-1.9c-0.1,0.1-0.1,0.6-0.4,1
	c-0.4-0.3-0.1-0.8-0.2-1c-1.2-1.1-0.8,1.8-0.7,2.4c-1.5-1-0.1-0.7-0.5-2.3c-1.3,0.2-1.6,0.8-1.4,2.3c-0.2,0.4-0.5,1.2-0.7,0.2
	c0.7-0.9,0.6-2.3-0.6-2.3c1.9,18.3,1.8,36.8-1,54.9l-0.1,1c1.4,0,3.4-0.4,4.9-0.5c4.2,0.1,4.1,0.7,11.1,0.6c1.6-0.2,2.1-0.4,2.6-0.4
	c-0.5-2.2-4-1-5.8-1.6c-3-0.3-3.6-2.2-4.5-3.6c-0.4-0.8-1.1-1.7-1.1-3c-0.2-1.7,0.1-2.5,0-4.2c0.1-1.2,1.5-1,2.3-0.9
	c2.6,0.3,7-0.2,8.2-0.5c1.7-0.5,1.7-1.6,0.6-3.1c-0.2-0.8-0.2-1.3,0.1-2c0.5-0.5,1.1-0.9,0.6-1.5c0,0-3.8-0.8-1.2-1.3
	c2.7-0.5,1.8-1.6,1.8-1.6s-0.4-1.1-0.9-2c-0.3-0.6,2.2-0.8,2.5-1.8C587.4,305,585.5,303.1,584.8,302.2 M579.1,301.2
	c-1.6,0.4-4.1-0.8-3.8-1c0.8-0.6,2.7-1.6,4.6-0.9c0.3,0.1,0.4,0.4,0.5,0.8C580.5,301.1,579.7,301.1,579.1,301.2"/>
<path class="st2" d="M551.1,308.8l-0.5,0.6c1.1,0.5,2.2-0.5,2.5-1.4l0.1-1C552.3,307.3,551.5,307.9,551.1,308.8"/>
<path class="st2" d="M557,311.6l-1.1-0.1c0,1,0.3,1.7,1.3,2.3l0.8,0.2C559.2,313.1,557.7,312.2,557,311.6"/>
<path class="st2" d="M548.5,294.4l-0.6,0.5c1.2,0.5,2.3-0.3,2.7-1.4l0.2-1C549.8,292.9,549.1,292.9,548.5,294.4"/>
<path class="st2" d="M548.8,298.6l-0.2-0.9c-1.1,0.3-1.9,0.7-2.3,1.7v0.7C547.6,300.7,548.4,299.2,548.8,298.6"/>
<path class="st2" d="M545.5,305.2l0.4,0.4c1.4,0.7,1.5-1,1.8-1.6l0.5-0.7C547,302.9,545.8,304.3,545.5,305.2"/>
<path class="st2" d="M553.6,284.7l-0.5,0.4c0.1,1.3,2.1,2.8,2.6,1.8l0.1-1.3C555.1,284.9,554.4,284.6,553.6,284.7"/>
<path class="st2" d="M560.9,282.4l-1.1-0.2c-0.6,0.6-0.9,1-0.3,2.1l0.6,0.8C561.4,284.2,562.6,283.3,560.9,282.4"/>
<path class="st1" d="M573.1,347.9c0-3.4,1.6-5.6,4.8-5.6c3.2,0,4.7,2.1,4.7,5.6c0,3.3-1.5,5.9-4.7,5.9
	C574.9,353.8,573.1,351.3,573.1,347.9 M577.9,357.7c5.8,0,9.6-4.4,9.6-9.8c0-5.7-3.9-9.6-9.6-9.6c-5.8,0-9.7,3.8-9.7,9.6
	C568.2,353.6,572.2,357.7,577.9,357.7"/>
<path class="st1" d="M601.5,342.3c-1.1-0.2-2.1-0.4-3.2-0.4c-1.9,0-3.3,0.5-3.3,1.4c0,1.1,1.8,2,3.8,3.1c1.9,1.1,4.6,2.5,4.6,5.7
	c0,3.5-3.1,5.5-7.7,5.5c-2.1,0-3.6-0.4-5.3-0.8v-3.9c1.4,0.4,3.5,1.2,5.5,1.2c1.3,0,2.6-0.6,2.6-1.8c0-1.1-1.6-1.8-3.8-3.1
	c-2-1-4.6-3.2-4.6-5.9c0-3.2,3.1-5,7.3-5c1.4,0,2.7,0.1,4.1,0.3V342.3z"/>
<path class="st1" d="M520.5,357.1c0.1-2.1,0.2-3.7,0.2-6.6v-9.9c0-3.6-0.2-6.3-0.7-8.9h6.4c0,1.8-0.2,4.4-0.2,7.2v9.3
	c0,2.6,0.4,6.5,0.7,8.9H520.5z"/>
<path class="st1" d="M536,348.4c0-3.7,1.5-6.2,4.6-6.2c2.9,0,4.9,2.5,4.9,6.1c0,3.2-1.6,5.4-4.7,5.4C537.8,353.8,536,352,536,348.4
	 M536.8,364.9c-0.4-2.7-0.4-5.8-0.4-6.8v-2.1c1.3,0.8,2.7,1.8,5.6,1.8c5,0,8.4-3.9,8.4-9.3c0-5.9-3.5-10-8.6-10
	c-3.5,0-5,1.7-6.2,3.1c-0.3-1-0.4-1.8-0.7-2.6l-4.6,0.4c0.6,3.1,1.1,6,1.1,9.2v7.5c0,2.6-0.5,7.6-0.7,9.3L536.8,364.9z"/>
<path class="st1" d="M563.8,342.3c-1.1-0.2-1.7-0.4-2.8-0.4c-1.9,0-3.3,0.5-3.3,1.4c0,1.1,1.8,2,3.8,3.1c1.9,1.1,4.6,2.5,4.6,5.7
	c0,3.5-3.1,5.5-7.7,5.5c-2.1,0-3.6-0.4-5.3-0.8v-3.9c1.3,0.4,3.5,1.2,5.5,1.2c1.3,0,2.6-0.6,2.6-1.8c0-1.1-1.6-1.8-3.8-3.1
	c-2-1-4.6-3.2-4.6-5.9c0-3.2,3.1-5,7.3-5c1.4,0,3,0.2,4.4,0.4L563.8,342.3z"/>
<path class="st2" d="M48.3,357.5h5v-19.3h-15v5.9h7.9c-0.5,5-3.4,7.7-8.5,7.7c-7.1,0-9.7-6-9.7-12c0-6.3,2.7-12.3,9.7-12.3
	c3.7,0,6.7,2.1,7.6,6h7.5c-0.9-8.1-7.8-12.6-15.1-12.6c-11.1,0-17.6,8.3-17.6,18.9c0,10.3,6.5,18.6,17.6,18.6c3.5,0,7.1-1.4,9.8-4.9
	L48.3,357.5z M56.8,357.5h8l2.8-8H81l2.7,8h8.2l-13.4-35.8h-8.1L56.8,357.5z M74.3,330.5h0.1l4.5,13.1h-9.3L74.3,330.5z M95,357.5
	h7.4v-25.1h0.1l8.8,25.1h6.1l8.8-25.4h0.1v25.4h7.4v-35.8h-11.1l-7.9,24.6h-0.1l-8.4-24.6H95V357.5z M140.4,357.5h27.2v-6.6h-19.3
	v-8.8h17.3V336h-17.3v-7.7h18.9v-6.6h-26.8V357.5z M218.3,333.7c-1-8.3-7.6-12.9-15.4-12.9c-11.1,0-17.6,8.3-17.6,18.9
	c0,10.3,6.5,18.6,17.6,18.6c8.8,0,14.9-5.7,15.7-14.6H211c-0.6,4.7-3.3,8-8.1,8c-7.1,0-9.7-6-9.7-12c0-6.3,2.7-12.3,9.7-12.3
	c3.9,0,7.3,2.7,7.8,6.3H218.3z M224,357.5h7.9v-15.4h14.5v15.4h7.9v-35.8h-7.9v13.7h-14.5v-13.7H224V357.5z M257.3,357.5h8l2.8-8
	h13.4l2.7,8h8.2l-13.4-35.8h-8.1L257.3,357.5z M274.8,330.5L274.8,330.5l4.6,13.1h-9.3L274.8,330.5z M295.4,357.5h7.4v-24h0.1
	l14.9,24h7.9v-35.8h-7.4v24h-0.1l-14.9-24h-7.8V357.5z M359.2,357.5h5v-19.3h-15v5.9h7.9c-0.5,5-3.4,7.7-8.5,7.7
	c-7.1,0-9.7-6-9.7-12c0-6.3,2.7-12.3,9.7-12.3c3.7,0,6.7,2.1,7.6,6h7.5c-0.9-8.1-7.8-12.6-15.1-12.6c-11.1,0-17.6,8.3-17.6,18.9
	c0,10.3,6.5,18.6,17.6,18.6c3.5,0,7.1-1.4,9.8-4.9L359.2,357.5z M370.6,357.5h27.2v-6.6h-19.3v-8.8h17.3V336h-17.3v-7.7h18.9v-6.6
	h-26.8V357.5z M403.1,357.5h7.9v-14h7.9c4,0,5.4,1.7,6,5.4c0.4,2.9,0.3,6.3,1.3,8.6h7.9c-1.4-2-1.4-6.2-1.5-8.5
	c-0.3-3.6-1.3-7.4-5.2-8.4v-0.1c4-1.6,5.7-4.8,5.7-9c0-5.4-4.1-9.9-10.5-9.9h-19.3V357.5z M411,327.8h8.6c3.5,0,5.4,1.5,5.4,5
	c0,3.6-1.9,5.1-5.4,5.1H411V327.8z M437,345.6c-0.1,8.8,7.3,12.7,15.2,12.7c9.7,0,14.9-4.9,14.9-11.5c0-8.1-8-9.8-10.6-10.4
	c-9-2.3-10.7-2.7-10.7-5.4c0-3,2.9-4.1,5.4-4.1c3.8,0,6.8,1.1,7.1,5.4h7.6c0-8.3-6.9-11.5-14.3-11.5c-6.5,0-13.4,3.5-13.4,10.8
	c0,6.7,5.4,8.8,10.7,10.2c5.3,1.4,10.6,2.1,10.6,5.9c0,3.7-4.2,4.5-7,4.5c-4.2,0-7.9-1.9-7.9-6.6H437z"/>
</svg>
