<?xml version="1.0" encoding="utf-8"?>
<!-- Generator: Adobe Illustrator 19.2.1, SVG Export Plug-In . SVG Version: 6.00 Build 0)  -->
<svg version="1.1" id="layer" xmlns="http://www.w3.org/2000/svg" xmlns:xlink="http://www.w3.org/1999/xlink" x="0px" y="0px"
	 viewBox="0 0 652 652" style="enable-background:new 0 0 652 652;" xml:space="preserve">
<style type="text/css">
	.st0{fill:#D9A900;}
</style>
<g>
	<path class="st0" d="M374.2,301.9L374.2,301.9c0.6,4,6.6,32.4,6.6,32.4h-13.2L374.2,301.9z M324.2,368.1h34.8l2.6-11.7h24.9
		l3.3,11.7h34.8l-32.6-93h-36.5L324.2,368.1z"/>
	<path class="st0" d="M238.7,275h33.7c30.6,0,54,13.7,54,47.8c0,27.5-19.1,45.2-45.9,45.2l-41.9-0.1V275z M271.8,341.3h2.3
		c11.1,0,19.2-6.4,19.2-18.6c0-13.1-7.3-20.4-19.4-20.4h-2.1V341.3z"/>
	<path class="st0" d="M218.6,277.9l1.8,15.3c0.4,3.6,2.6,12.3-0.1,11.1c-1.7-0.7-3-4.7-4.4-8.2c-0.7-1.8-3.9-10.2-4.8-10.8
		c-4.1-3-14.4-6.4-21.4-6.4c-21.1-0.1-35.1,15.1-35.1,41.9c0,19.2,9.5,42.4,33.6,42.4c8.6,0,25.2-2.7,29.7-14.6
		c2-5.4,3.9-10.2,5.3-8.8c1,1.1-0.3,5.4-0.9,7.7c-2.8,11.1-3,14.4-3.9,14.9c-10.9,5.3-24.9,7.1-37.1,7.1
		c-38.9,0-52.4-22.1-52.4-44.1c0-38.3,24.2-54.1,61.7-52.7C200.3,273,209.7,274.7,218.6,277.9"/>
	<path class="st0" d="M103.7,279.6l-6.2-2.1c-2.1-1.8,0.4-2.3,0.4-2.3s9,1.6,31.4-0.2c0,0,2,0.4,0.6,1.9l-7.4,3.1
		c-4.8,2-4.8,0.9-4.8,6l0,47.4c0,37.1-38.8,36.2-46.4,36.2c-3.6,0-38.9,0-38.9-29.8v-50.2c0-8.8,1-8.5-2-9.5l-9-3.3
		c0,0-1.5-2.1,1.2-2c7.4,0.4,18,1.9,42.8,0.1c0,0,2.2,0.5,0.8,2.1l-7.2,2c-5.7,2.5-4.9,0.6-5.1,6.3l0.2,49.5
		c0,12.1,6.4,27.1,26.4,27.1c27.5,0,27.8-23.1,27.8-28.3l0.1-49C108.5,280.1,107.9,281.4,103.7,279.6"/>
	<path class="st0" d="M546.9,360.9l9.6-24.7l1.7,1.4c5.9,4.7,13.9,8.7,21.4,8.8c6.8,0.1,10.1-1.6,9.2-7.1c-0.7-4.2-5.5-4.9-8.5-5.5
		l-6.6-1.3c-12.9-2.3-23.6-10-23.6-24.6c0-22.1,19.6-34.4,39.3-34.4c10.4,0,19.8,2.5,28.7,8.2l-8.3,21.9c-4.6-3.2-11.5-7.7-20.3-8
		c-2.9-0.1-9.5,1.4-7.4,7.9c0.9,2.8,5,3.9,7.5,4.5l7.4,1.8c13.9,3.2,24,10.9,24,26.6c0,22.2-19.7,33.2-39.3,33.2
		C570.3,369.4,557.1,366.3,546.9,360.9"/>
	<rect x="506.9" y="275" class="st0" width="33" height="93"/>
	<polygon class="st0" points="469.1,275 503.4,275 468.4,368 440.5,368 405.5,275 439.8,275 454.4,331.1 	"/>
</g>
</svg>
